<svg width="128" height="128" viewBox="0 0 128 128" fill="none" xmlns="http://www.w3.org/2000/svg">
<rect width="128" height="128" rx="20" fill="#ECFFDA"/>
<path d="M44.418 52.9273H42.4122C44.1213 44.2473 50.8875 37.1698 59.5538 35.3499V37.9014V38.1514H59.8038H68.8151H69.0651V37.9014V35.3535C77.7336 37.2767 84.4975 44.252 86.2067 52.9273H84.2008H83.9508V53.1773V60.2105V60.4605H84.2008H91.2341H91.4841V60.2105V53.1773V52.9273H91.2341H88.3683C86.7553 43.6392 79.9745 36.0727 70.981 33.5359H90.1659C90.5867 34.8678 91.8456 35.8436 93.322 35.8436C95.2242 35.8436 96.6491 34.2972 96.6491 32.5166C96.6491 30.6319 95.2298 29.0797 93.322 29.0797H93.3208C91.8443 29.0797 90.5855 30.0555 90.1646 31.3875H69.0644V29V28.75H68.8144H59.8031H59.5531V29V31.3875H38.2332C37.8123 30.0555 36.5535 29.0797 35.077 29.0797C33.1749 29.0797 31.75 30.6261 31.75 32.4067C31.75 34.3089 33.2964 35.7337 35.077 35.7337C36.5535 35.7337 37.8123 34.7579 38.2332 33.426H58.0573C48.9451 35.8472 41.8885 43.4995 40.2506 52.9273H37.3848H37.1348V53.1773V60.2105V60.4605H37.3848H44.418H44.668V60.2105V53.1773V52.9273H44.418ZM42.5196 58.3115H39.2832V55.0751H42.5196V58.3115ZM35.077 33.6952C34.4458 33.6952 33.8984 33.1478 33.8984 32.5166C33.8984 31.8854 34.4458 31.338 35.077 31.338C35.7082 31.338 36.2556 31.8854 36.2556 32.5166C36.2556 33.1607 35.8055 33.6952 35.077 33.6952ZM89.2245 58.3115H85.9881V55.0751H89.2245V58.3115ZM66.9167 36.0036H61.7022V30.899H66.9167V36.0036ZM93.3214 33.6959C92.6902 33.6959 92.1428 33.1484 92.1428 32.5172C92.1428 31.886 92.6902 31.3386 93.3214 31.3386C93.9526 31.3386 94.5 31.886 94.5 32.5172C94.5 33.1484 93.9526 33.6959 93.3214 33.6959Z" fill="#5FC300" stroke="#5FC300" stroke-width="0.5"/>
<path d="M63.5299 38.9703C54.1654 39.3047 46.4769 47.2155 46.3652 56.5787C46.2541 60.9266 47.8145 65.1613 50.6003 68.3937C54.8904 73.5425 56.2186 78.4708 56.2548 84.3569H54.1978C53.6411 84.3569 53.0687 84.7785 53.0687 85.4861V92.4094C53.0687 92.9661 53.4902 93.5385 54.1978 93.5385H56.5853V94.9369C56.5853 97.163 58.3456 98.9233 60.5717 98.9233H68.0444C70.2705 98.9233 72.0308 97.163 72.0308 94.9369V93.5385H74.4183C74.975 93.5385 75.5474 93.117 75.5474 92.4094V85.3762C75.5474 84.8195 75.1258 84.247 74.4183 84.247H72.3614C72.4026 78.2426 73.9397 73.0065 77.7923 68.6184C80.6916 65.384 82.251 61.1484 82.251 56.8038C82.251 46.8566 73.924 38.6654 63.7888 38.9615V38.961L63.5299 38.9703ZM69.9923 94.6857H69.8824V94.9357C69.8824 95.998 69.0139 96.7737 68.0444 96.7737H60.5717C59.5094 96.7737 58.7337 95.9052 58.7337 94.9357V93.867H69.9923V94.6857ZM52.3013 67.0804L52.3001 67.0791C49.8123 64.1586 48.5152 60.4824 48.6234 56.6985L48.6234 56.6947C48.7315 48.4774 55.5476 41.5511 63.768 41.227C72.7476 40.9027 80.2104 48.0416 80.2124 57.0181C80.1033 60.6983 78.6948 64.486 76.2091 67.296L76.1464 67.3669V67.3679C72.0204 72.0768 70.3654 77.9548 70.3228 84.2451H65.4372V71.7984L69.0999 63.1803C70.6862 62.886 71.9209 61.5021 71.9209 59.8789C71.9209 57.9768 70.3745 56.5519 68.5939 56.5519C66.6917 56.5519 65.2669 58.0983 65.2669 59.8789C65.2669 61.1164 66.0046 62.2319 67.0657 62.8478L64.5194 68.822L61.7761 62.8455C62.8301 62.2427 63.569 61.2213 63.569 59.8789C63.569 57.9768 62.0226 56.5519 60.242 56.5519C58.3398 56.5519 56.9149 58.0983 56.9149 59.8789C56.9149 61.614 58.1548 62.893 59.7361 63.1806L63.3987 71.7984V84.2451H58.5131C58.4722 78.034 56.8982 72.5535 52.3013 67.0804ZM73.399 91.3889H55.2171V86.5041H73.399V91.3889ZM68.484 61.1681C67.8528 61.1681 67.3054 60.6206 67.3054 59.9894C67.3054 59.3583 67.8528 58.8108 68.484 58.8108C69.1152 58.8108 69.6626 59.3583 69.6626 59.9894C69.6626 60.6206 69.1152 61.1681 68.484 61.1681ZM58.8436 59.8795C58.8436 59.2484 59.391 58.7009 60.0222 58.7009C60.6534 58.7009 61.2008 59.2484 61.2008 59.8795C61.2008 60.5107 60.6534 61.0582 60.0222 61.0582C59.3781 61.0582 58.8436 60.6081 58.8436 59.8795Z" fill="#5FC300" stroke="#5FC300" stroke-width="0.5"/>
</svg>
