<svg width="128" height="128" viewBox="0 0 128 128" fill="none" xmlns="http://www.w3.org/2000/svg">
<rect width="128" height="128" rx="20" fill="#DAE6FF"/>
<path d="M73.0369 63.9058C75.1384 61.8043 77.2398 59.7028 79.3493 57.5933C79.6506 57.292 79.952 56.9907 80.2533 56.6893V60.0518C78.1519 57.9503 76.0504 55.8488 73.9409 53.7394C73.6396 53.438 73.3382 53.1367 73.0369 52.8353C72.1566 51.9551 72.0932 50.3372 73.0369 49.4728C73.9885 48.6005 75.4635 48.5291 76.3994 49.4728C78.5008 51.5743 80.6023 53.6758 82.7118 55.7852C83.0131 56.0866 83.3145 56.3879 83.6158 56.6893C84.5278 57.6013 84.5278 59.1397 83.6158 60.0518C81.5143 62.1533 79.4129 64.2547 77.3034 66.3642C77.0021 66.6655 76.7007 66.9669 76.3994 67.2682C75.5191 68.1485 73.9013 68.2119 73.0369 67.2682C72.1646 66.3166 72.0932 64.8417 73.0369 63.9058Z" fill="#00329B"/>
<path d="M51.9902 67.2685C49.8887 65.1671 47.7872 63.0656 45.6778 60.9561C45.3764 60.6548 45.0751 60.3534 44.7737 60.0521C43.8618 59.1401 43.8618 57.6017 44.7737 56.6896C46.8752 54.5881 48.9767 52.4866 51.0861 50.3772C51.3875 50.0758 51.6888 49.7745 51.9902 49.4731C52.8704 48.5929 54.4883 48.5294 55.3527 49.4731C56.225 50.4248 56.2964 51.8997 55.3527 52.8356C53.2512 54.9371 51.1497 57.0386 49.0403 59.148C48.7389 59.4494 48.4376 59.7507 48.1362 60.0521V56.6896C50.2377 58.7911 52.3392 60.8926 54.4486 63.002C54.75 63.3033 55.0513 63.6047 55.3527 63.906C56.2329 64.7863 56.2964 66.4041 55.3527 67.2685C54.409 68.1409 52.9339 68.2043 51.9902 67.2685Z" fill="#00329B"/>
<path d="M65.4238 69.783C64.6229 67.3405 63.8299 64.8979 63.0289 62.4555C61.768 58.5935 60.507 54.7394 59.2461 50.8774C58.9606 49.9971 58.6672 49.109 58.3817 48.2286C57.9932 47.047 58.8338 45.5799 60.047 45.3023C61.3555 45.001 62.5609 45.6989 62.9733 46.9676C63.7664 49.4022 64.5673 51.8447 65.3603 54.2873C66.6212 58.1493 67.8822 62.0034 69.1431 65.8654C69.4285 66.7457 69.722 67.6338 70.0074 68.5142C70.396 69.6958 69.5554 71.1629 68.3422 71.4405C67.0416 71.7418 65.8362 71.0519 65.4238 69.783Z" fill="#00329B"/>
<path d="M33.7582 42.4545V45.6346V53.2396V62.391V70.1705C33.7582 71.3679 33.7503 72.5655 33.7582 73.7708C33.7582 74.0007 33.774 74.2228 33.7978 74.4528C33.7661 74.2386 33.7423 74.0325 33.7106 73.8184C33.774 74.2783 33.9009 74.7224 34.0754 75.1586C33.9961 74.9682 33.9168 74.7779 33.8375 74.5876C33.9564 74.8572 34.0992 75.1189 34.2578 75.3727C34.2736 75.3965 34.3767 75.5868 34.4085 75.5868C34.4164 75.5868 34.0119 75.111 34.2261 75.3489C34.3292 75.4679 34.4323 75.5868 34.5433 75.6978C34.6384 75.793 34.7415 75.8881 34.8526 75.9833C35.0032 76.1181 35.2253 76.1736 34.6543 75.8406C34.7098 75.8723 34.7653 75.9199 34.8288 75.9595C35.0905 76.134 35.368 76.2847 35.6535 76.4115L35.0825 76.1736C35.5107 76.356 35.9548 76.475 36.4227 76.5384C36.2086 76.5067 36.0024 76.4829 35.7883 76.4512C36.4465 76.5305 37.1285 76.4909 37.7947 76.4909H41.7914H47.7707H55.1062H63.195H71.3235H78.8969H85.2966H89.8248H91.8708C92.1087 76.4909 92.3466 76.475 92.5924 76.4512C92.3783 76.4829 92.1721 76.5067 91.958 76.5384C92.418 76.475 92.8621 76.3481 93.2982 76.1736L92.7272 76.4115C92.9969 76.2926 93.2586 76.1498 93.5123 75.9913C93.5361 75.9754 93.7265 75.8723 93.7265 75.8406C93.7265 75.8326 93.2507 76.2371 93.4886 76.023C93.6075 75.9199 93.7265 75.8168 93.8375 75.7058C93.9326 75.6106 94.0278 75.5075 94.123 75.3965C94.2578 75.2458 94.3133 75.0238 93.9802 75.5947C94.012 75.5392 94.0595 75.4837 94.0992 75.4203C94.2736 75.1586 94.4243 74.881 94.5512 74.5955C94.4719 74.7859 94.3926 74.9762 94.3133 75.1665C94.4957 74.7383 94.6147 74.2942 94.6781 73.8263C94.6464 74.0404 94.6226 74.2466 94.5909 74.4607C94.7336 73.287 94.6305 72.0499 94.6305 70.8684V63.3189V54.096V46.1657C94.6305 44.9365 94.6384 43.7153 94.6305 42.4861C94.6305 42.2561 94.6147 42.0341 94.5909 41.8041C94.6226 42.0182 94.6464 42.2244 94.6781 42.4385C94.6147 41.9786 94.4878 41.5345 94.3133 41.0983C94.3926 41.2886 94.4719 41.479 94.5512 41.6693C94.4323 41.3997 94.2895 41.138 94.1309 40.8842C94.1151 40.8604 94.012 40.6701 93.9802 40.6701C93.9723 40.6701 94.3768 41.1459 94.1626 40.908C94.0595 40.789 93.9564 40.6701 93.8454 40.5591C93.7503 40.4639 93.6472 40.3687 93.5361 40.2736C93.3855 40.1387 93.1634 40.0832 93.7344 40.4163C93.6789 40.3846 93.6234 40.337 93.5599 40.2973C93.2982 40.1229 93.0207 39.9722 92.7352 39.8453C92.9255 39.9246 93.1158 40.0039 93.3062 40.0832C92.8779 39.9008 92.4339 39.7819 91.966 39.7184C92.1801 39.7502 92.3863 39.774 92.6004 39.8057C91.9422 39.7264 91.2602 39.766 90.594 39.766H86.5973H80.6179H73.2825H65.1937H57.0652H49.4918H43.0921H38.5639H36.5179C36.28 39.766 36.0421 39.7819 35.7963 39.8057C36.0104 39.774 36.2166 39.7502 36.4307 39.7184C35.9707 39.7819 35.5266 39.9088 35.0905 40.0832C35.2808 40.0039 35.4711 39.9246 35.6614 39.8453C35.3918 39.9643 35.1301 40.107 34.8764 40.2656C34.8526 40.2815 34.6622 40.3846 34.6622 40.4163C34.6622 40.4242 35.138 40.0198 34.9001 40.2339C34.7812 40.337 34.6622 40.4401 34.5512 40.5511C34.456 40.6463 34.3609 40.7494 34.2657 40.8604C34.1309 41.0111 34.0754 41.2331 34.4085 40.6621C34.3767 40.7176 34.3292 40.7732 34.2895 40.8366C34.115 41.0983 33.9644 41.3759 33.8375 41.6613C33.9168 41.471 33.9961 41.2807 34.0754 41.0904C33.893 41.5186 33.774 41.9627 33.7106 42.4306C33.7423 42.2164 33.7661 42.0103 33.7978 41.7962C33.774 42.0182 33.7582 42.2402 33.7582 42.4544C33.7423 43.6994 32.6717 44.8889 31.3792 44.8334C30.1024 44.7779 28.9842 43.7866 29.0001 42.4544C29.0239 40.4004 29.8804 38.299 31.4505 36.935C32.8621 35.7138 34.583 35.016 36.4623 35H37.7629H45.701H58.1435H71.958H84.0357H91.1808C92.1562 35 93.1316 35.0159 94.0833 35.3093C97.2792 36.3005 99.3966 39.2506 99.4044 42.5812C99.4124 45.2537 99.4044 47.9261 99.4044 50.5987V64.1196V73.3346C99.4044 73.5566 99.4124 73.7866 99.3965 74.0086C99.3093 76.0625 98.4132 78.1244 96.7953 79.4408C95.3917 80.5749 93.7581 81.2252 91.9342 81.241H91.5376H85.1777H73.544H59.7375H46.946H38.3417H36.5734C33.7264 81.2331 30.9191 79.6391 29.7375 76.9905C29.2617 75.9199 29.0079 74.8335 28.9999 73.6519V72.6765V68.4497V55.3174V44.1992V42.4546C28.9999 41.2096 30.0943 40.02 31.379 40.0756C32.6637 40.139 33.758 41.1224 33.758 42.4546L33.7582 42.4545Z" fill="#00329B"/>
<path d="M60.888 78.8621V89.8771V91.4633L58.509 89.0842H68.4772H69.8888L67.5098 91.4633V80.4482V78.8621L69.8888 81.2411H59.9205H58.509C57.2639 81.2411 56.0744 80.1467 56.1299 78.8621C56.1854 77.5694 57.1767 76.483 58.509 76.483H68.4772H69.8888C71.1735 76.483 72.2678 77.5695 72.2678 78.8621V89.8771V91.4633C72.2678 92.748 71.1814 93.8423 69.8888 93.8423H59.9205H58.509C57.2243 93.8423 56.1299 92.7558 56.1299 91.4633V80.4482V78.8621C56.1299 77.617 57.2243 76.4275 58.509 76.483C59.7937 76.5465 60.888 77.5298 60.888 78.8621Z" fill="#00329B"/>
<path d="M78.3747 93.843H75.5437H68.7951H60.5873H53.5214C52.3715 93.843 51.2137 93.8668 50.0638 93.843H50.0162C48.7711 93.843 47.5816 92.7486 47.6372 91.464C47.6927 90.1713 48.6839 89.0849 50.0162 89.0849H52.8472H59.5958H67.8036H74.8695C76.0194 89.0849 77.1772 89.0612 78.3271 89.0849H78.3747C79.6198 89.0849 80.8093 90.1793 80.7537 91.464C80.6903 92.7566 79.7069 93.843 78.3747 93.843Z" fill="#00329B"/>
</svg>
