<svg width="128" height="128" viewBox="0 0 128 128" fill="none" xmlns="http://www.w3.org/2000/svg">
<rect width="128" height="128" rx="20" fill="#FFE5DA"/>
<path d="M82.4254 57.2325C83.8321 56.3503 84.8384 54.9948 85.2715 53.3859C85.726 51.6949 85.4926 49.9283 84.6142 48.412C82.8439 45.3559 78.9606 44.2597 75.8537 45.8908L69.9464 35.6954C69.1648 34.3468 67.8985 33.3816 66.3816 32.9759C64.8636 32.5707 63.2826 32.7765 61.9287 33.5547C60.5753 34.3335 59.6066 35.5952 59.1994 37.1067C58.8933 38.2467 58.9352 39.4215 59.3086 40.5085C56.5028 47.5545 50.5631 54.74 42.5001 60.8705C42.3748 60.7874 42.2365 60.7226 42.0886 60.6835C41.7336 60.588 41.3554 60.6384 41.0364 60.8212L33.4976 65.1577C30.9618 66.6167 29.1448 68.9819 28.3821 71.8178C27.6198 74.6536 28.006 77.6068 29.4697 80.1345C31.5052 83.6483 35.2114 85.6138 39.0177 85.6138C40.8832 85.6138 42.773 85.1416 44.5006 84.1469L44.932 83.8988L53.2455 94.7137C53.82 95.4613 54.621 95.9008 55.5623 95.9855C55.6693 95.9952 55.7753 96 55.8797 96C56.6973 96 57.4492 95.7084 58.0695 95.1483L60.3588 93.0784C61.6326 91.926 61.8079 90.0286 60.766 88.6652L52.949 78.4312C62.234 74.6054 71.3645 73.1062 78.8323 74.2002C79.9635 75.4903 81.5934 76.1978 83.2598 76.1978C84.255 76.1978 85.2625 75.9459 86.1844 75.4158C88.987 73.8036 89.951 70.2196 88.3324 67.4271L82.4254 57.2325ZM82.2129 49.7937C82.7212 50.6711 82.8562 51.6921 82.5927 52.6703C82.3517 53.5659 81.803 54.3253 81.0375 54.8362L77.2421 48.286C79.0215 47.4151 81.2071 48.0577 82.213 49.7937H82.2129ZM39.013 82.8517C36.1669 82.8517 33.3939 81.3804 31.8717 78.7531C30.7776 76.8648 30.4898 74.6567 31.0611 72.5331C31.6323 70.4106 32.9895 68.6409 34.8846 67.5507L41.2223 63.9051L49.453 78.1091L43.1153 81.7547C41.8217 82.4992 40.4086 82.8519 39.0132 82.8519L39.013 82.8517ZM58.4957 91.0334L56.2064 93.1034C56.0853 93.2133 55.974 93.2497 55.8121 93.2352C55.6491 93.2208 55.5469 93.165 55.4484 93.0353L47.355 82.5072L50.9828 80.4206L58.5603 90.3405C58.7239 90.5544 58.6959 90.8518 58.4958 91.0335L58.4957 91.0334ZM51.4646 76.0556L44.014 63.1975C51.7755 57.3307 57.7013 50.4782 60.9767 43.6094L76.9712 71.2133C69.3624 70.605 60.4437 72.2922 51.4639 76.0559L51.4646 76.0556ZM84.7992 73.0246C83.3205 73.8752 81.4237 73.3687 80.5701 71.8953L62.1821 40.1627C61.3285 38.6899 61.8368 36.7994 63.3155 35.9489C63.7878 35.6766 64.3139 35.5383 64.8492 35.5383C65.1197 35.5383 65.3935 35.5742 65.663 35.6455C66.4656 35.8599 67.1332 36.368 67.5441 37.0777L85.9307 68.8103C86.7849 70.2842 86.276 72.1736 84.7983 73.0247L84.7992 73.0246ZM86.3069 47.4404C85.9239 46.7796 86.1509 45.9348 86.8147 45.5532L92.3816 42.3507C93.0449 41.9691 93.8927 42.1953 94.2756 42.8567C94.6586 43.5176 94.4316 44.3623 93.7678 44.7439L88.2009 47.9464C87.9825 48.0718 87.7437 48.1318 87.5092 48.1318C87.0299 48.1313 86.564 47.8842 86.3069 47.4404H86.3069ZM79.8891 38.5421L83.279 32.6913C83.662 32.0304 84.5098 31.8037 85.173 32.1853C85.8363 32.5669 86.0638 33.4116 85.6808 34.0725L82.2909 39.9233C82.0338 40.3665 81.5679 40.6142 81.0881 40.6142C80.8525 40.6142 80.6142 40.5541 80.3964 40.4287C79.7337 40.0482 79.5072 39.2029 79.8891 38.5421L79.8891 38.5421ZM99 56.046C99 56.8086 98.3792 57.4271 97.6138 57.4271H90.834C90.0686 57.4271 89.4478 56.8086 89.4478 56.046C89.4478 55.2833 90.0686 54.6648 90.834 54.6648H97.6138C98.3793 54.6648 99 55.2833 99 56.046Z" fill="#BB3800"/>
</svg>
