<svg width="128" height="128" viewBox="0 0 128 128" fill="none" xmlns="http://www.w3.org/2000/svg">
<rect width="128" height="128" rx="20" fill="#EFEAFF"/>
<path d="M18.5215 90.9776C17.5848 91.9028 16.0656 91.9028 15.1281 90.9776C14.1914 90.0524 14.1914 88.5517 15.1281 87.6256L39.7107 63.3432C40.4975 62.566 41.6962 62.442 42.6144 62.9711L70.2591 75.7977L89.6677 56.6262L84.2703 56.5353C82.9511 56.5154 81.8965 55.4405 81.9166 54.1366C81.9367 52.8336 83.0248 51.7918 84.3449 51.8117L95.203 51.9969C95.866 51.9547 96.544 52.1846 97.0512 52.6857C97.5585 53.1867 97.7912 53.8564 97.7485 54.5113L97.936 65.2352C97.9561 66.5382 96.9014 67.6139 95.5823 67.6338C94.2632 67.6537 93.1742 66.6118 93.154 65.3088L93.0619 59.9791L72.4682 80.3213C71.771 80.9976 70.6954 81.2159 69.7595 80.7843L41.9198 67.8661L18.5222 90.978L18.5215 90.9776ZM99.0342 41.3671C99.0342 38.7841 100.097 36.4393 101.812 34.7451C103.746 32.984 105.843 32 108.516 32C111.127 32 113.497 33.0501 115.213 34.7443C116.937 36.4483 118 38.789 118 41.368C118 43.9452 116.935 46.2858 115.216 47.9859C113.505 49.6842 111.131 50.7342 108.516 50.7342C105.908 50.7342 103.538 49.6842 101.821 47.9899C100.097 46.2859 99.0342 43.9444 99.0342 41.368V41.3671ZM105.205 38.0971C104.36 38.9313 103.836 40.0889 103.836 41.3671C103.836 42.647 104.359 43.8061 105.201 44.6414C106.047 45.4732 107.221 45.9899 108.515 45.9899C109.81 45.9899 110.981 45.4723 111.826 44.6373C112.675 43.8088 113.196 42.6504 113.196 41.3672C113.196 40.0865 112.673 38.9273 111.831 38.0912C110.985 37.2595 109.811 36.7427 108.515 36.7427C107.306 36.7427 106.04 37.2214 105.204 38.0962L105.205 38.0971ZM14.0959 67.2055C13.1592 68.1307 11.64 68.1307 10.7025 67.2055C9.76584 66.2803 9.76584 64.7796 10.7025 63.8535L13.4297 61.1597L10.7025 58.4658C9.76584 57.5405 9.76584 56.0399 10.7025 55.1138C11.6391 54.1886 13.1584 54.1886 14.0959 55.1138L16.8231 57.8077L19.5503 55.1138C20.4869 54.1886 22.0062 54.1886 22.9436 55.1138C23.8803 56.039 23.8803 57.5397 22.9436 58.4658L20.2165 61.1597L22.9436 63.8535C23.8803 64.7787 23.8803 66.2794 22.9436 67.2055C22.007 68.1307 20.4877 68.1307 19.5503 67.2055L16.8231 64.5116L14.0959 67.2055ZM42.5377 96.3054C41.6011 97.2307 40.0818 97.2307 39.1443 96.3054C38.2077 95.3802 38.2077 93.8795 39.1443 92.9535L41.8715 90.2596L39.1443 87.5674C38.2077 86.6422 38.2077 85.1415 39.1443 84.2155C40.081 83.2902 41.6002 83.2902 42.5377 84.2155L45.2649 86.9077L47.9921 84.2138C48.9288 83.2886 50.448 83.2886 51.3855 84.2138C52.3221 85.139 52.3221 86.6397 51.3855 87.5657L48.6583 90.2596L51.3855 92.9541C52.3221 93.8793 52.3221 95.38 51.3855 96.3061C50.4488 97.2313 48.9296 97.2313 47.9921 96.3061L45.2649 93.6122L42.5377 96.3044V96.3054ZM63.8984 60.974C62.9617 61.8992 61.4425 61.8992 60.505 60.974C59.5683 60.0488 59.5683 58.5481 60.505 57.6221L63.2322 54.9282L60.505 52.236C59.5683 51.3108 59.5683 49.8101 60.505 48.884C61.4416 47.9588 62.9609 47.9588 63.8984 48.884L66.6255 51.5762L69.3527 48.8823C70.2894 47.9571 71.8086 47.9571 72.7461 48.8823C73.6828 49.8076 73.6828 51.3083 72.7461 52.2343L70.0189 54.9282L72.7461 57.6227C73.6828 58.5479 73.6828 60.0486 72.7461 60.9747C71.8095 61.8999 70.2902 61.8999 69.3527 60.9747L66.6255 58.2801L63.8984 60.974Z" fill="#4628A4"/>
</svg>
