<svg width="210" height="210" viewBox="0 0 210 210" fill="none" xmlns="http://www.w3.org/2000/svg">
<g filter="url(#filter0_d_71_69)">
<circle cx="104.815" cy="104.815" r="64.8154" fill="white"/>
<circle cx="104.815" cy="104.815" r="64.3154" stroke="#1A7BFF"/>
</g>
<path d="M95.6661 139.999H114.333C114.976 139.999 115.499 139.476 115.499 138.832V129.499C115.499 125.305 113.021 121.688 109.458 120.007C111.44 118.718 112.835 116.597 113.109 114.107C113.151 113.798 113.166 113.489 113.166 113.166C113.166 112.899 113.152 112.646 113.125 112.418C112.744 108.258 109.175 104.999 104.999 104.999C100.824 104.999 97.2541 108.258 96.876 112.392C96.8468 112.646 96.8328 112.899 96.8328 113.166C96.8328 113.489 96.8479 113.798 96.8864 114.075C97.163 116.584 98.5583 118.714 100.542 120.006C96.9776 121.687 94.4995 125.305 94.4995 129.499V138.832C94.4995 139.476 95.0224 139.999 95.6662 139.999L95.6661 139.999ZM104.999 107.333C107.475 107.333 109.632 108.948 110.457 111.208C108.828 110.215 106.945 109.666 104.999 109.666C103.051 109.666 101.166 110.218 99.5358 111.213C100.354 108.957 102.516 107.333 104.999 107.333ZM99.312 114.326C100.825 112.846 102.864 111.999 104.999 111.999C107.137 111.999 109.175 112.846 110.688 114.327C110.147 117.019 107.8 118.999 104.999 118.999C102.206 118.999 99.8661 117.031 99.312 114.326ZM106.085 130.432L104.999 132.062L103.913 130.432L104.999 125.544L106.085 130.432ZM96.8328 129.499C96.8328 125.504 99.7182 122.176 103.514 121.474L101.527 130.412C101.458 130.723 101.519 131.048 101.695 131.312L104.029 134.812C104.246 135.137 104.61 135.332 104.999 135.332C105.389 135.332 105.753 135.137 105.97 134.813L108.303 131.313C108.479 131.048 108.54 130.724 108.472 130.413L106.485 121.476C110.281 122.176 113.166 125.504 113.166 129.499V137.665H96.8328L96.8328 129.499Z" fill="#1A7BFF"/>
<path d="M100.137 96.1849C99.8102 95.6958 99.1722 95.5271 98.6447 95.788L91.6448 99.2879L92.689 101.375L98.7671 98.3358L100.529 100.98C100.75 101.312 101.119 101.499 101.499 101.499C101.653 101.499 101.81 101.469 101.959 101.405L109.233 98.2873L111.028 100.98C111.247 101.306 111.612 101.499 111.999 101.499C112.051 101.499 112.102 101.495 112.154 101.488C112.596 101.429 112.965 101.124 113.107 100.701L115.44 93.7009C115.559 93.3452 115.498 92.954 115.279 92.6499C115.06 92.3452 114.707 92.1655 114.333 92.1655H107.333C106.902 92.1655 106.507 92.4025 106.303 92.7817C106.1 93.1608 106.123 93.6218 106.362 93.9785L107.917 96.3118L101.931 98.8774L100.137 96.1849ZM112.714 94.4989L111.647 97.7004L109.513 94.4989H112.714Z" fill="#1A7BFF"/>
<path d="M115.979 120.097L117.354 121.982C122.767 118.038 125.999 111.688 125.999 104.998C125.999 93.4192 116.579 83.9985 105 83.9985C93.4207 83.9985 84 93.4192 84 104.998C84 111.688 87.2328 118.038 92.6463 121.982L94.0208 120.097C89.2069 116.589 86.3334 110.947 86.3334 104.999C86.3334 94.7074 94.7078 86.333 105 86.333C115.292 86.333 123.666 94.7074 123.666 104.999C123.666 110.947 120.793 116.59 115.979 120.097H115.979Z" fill="#1A7BFF"/>
<path d="M138.832 99.1662H134.767C134.502 97.8131 134.144 96.4735 133.697 95.1668L137.217 93.1345C137.775 92.8126 137.965 92.0986 137.644 91.5408L132.977 83.4581C132.654 82.8993 131.942 82.7081 131.383 83.0311L127.859 85.066C126.951 84.0264 125.972 83.0477 124.933 82.14L126.968 78.6155C127.29 78.0567 127.098 77.3437 126.541 77.0218L118.458 72.3552C117.898 72.0333 117.185 72.2245 116.864 72.7823L114.832 76.302C113.525 75.8556 112.186 75.4962 110.833 75.2322V71.1666C110.833 70.5229 110.31 70 109.666 70H100.333C99.6891 70 99.1662 70.5229 99.1662 71.1666V75.2322C97.8131 75.4968 96.4735 75.8551 95.1668 76.302L93.1345 72.7823C92.8116 72.2234 92.096 72.0323 91.5408 72.3552L83.4581 77.0218C82.8993 77.3437 82.7092 78.0577 83.0311 78.6155L85.066 82.14C84.0264 83.0478 83.0477 84.0264 82.14 85.066L78.6155 83.0316C78.0556 82.7097 77.3437 82.9009 77.0218 83.4587L72.3552 91.5413C72.0333 92.0991 72.2245 92.8132 72.7823 93.1351L76.302 95.1673C75.8556 96.4735 75.4962 97.8131 75.2322 99.1662H71.1666C70.5229 99.1662 70 99.6891 70 100.333V109.666C70 110.31 70.5229 110.833 71.1666 110.833H75.2322C75.4968 112.186 75.8551 113.525 76.302 114.832L72.7823 116.864C72.2234 117.186 72.0333 117.9 72.3552 118.458L77.0218 126.541C77.3437 127.099 78.0556 127.29 78.6155 126.968L82.14 124.933C83.0478 125.972 84.0264 126.951 85.066 127.859L83.0311 131.383C82.7092 131.942 82.9003 132.655 83.4581 132.977L91.5408 137.644L92.7075 135.623L85.6352 131.54L87.5742 128.182C87.8601 127.686 87.7445 127.057 87.3023 126.695C85.843 125.503 84.4977 124.158 83.3054 122.699C82.944 122.256 82.3148 122.141 81.8191 122.427L78.4613 124.366L74.9613 118.304L78.3154 116.367C78.8112 116.08 79.0258 115.477 78.8227 114.943C78.1519 113.178 77.6607 111.341 77.3623 109.483C77.2691 108.914 76.7816 108.499 76.2087 108.499H72.3333V101.499H76.2087C76.7816 101.499 77.2691 101.084 77.3602 100.518C77.6586 98.6597 78.1513 96.8234 78.8206 95.0583C79.0237 94.524 78.8091 93.9198 78.3133 93.6338L74.9592 91.6974L78.4592 85.6355L81.817 87.5746C82.3128 87.8605 82.9404 87.7449 83.3034 87.3027C84.4955 85.8434 85.8408 84.4981 87.3002 83.3058C87.7424 82.9444 87.8591 82.3142 87.5721 81.8194L85.6331 78.4616L91.695 74.9617L93.6314 78.3157C93.9183 78.8105 94.5204 79.0261 95.0559 78.823C96.8209 78.1522 98.6574 77.6611 100.516 77.3627C101.084 77.2689 101.5 76.7814 101.5 76.2085V72.3331H108.499V76.2085C108.499 76.7814 108.914 77.2689 109.481 77.3601C111.339 77.6585 113.175 78.1512 114.94 78.8204C115.475 79.0235 116.079 78.8074 116.365 78.3131L118.301 74.9591L124.363 78.459L122.424 81.8168C122.138 82.3127 122.254 82.9413 122.696 83.3032C124.155 84.4954 125.501 85.8406 126.693 87.3001C127.054 87.7433 127.685 87.8589 128.179 87.572L131.537 85.6329L135.037 91.6948L131.683 93.6312C131.187 93.9182 130.973 94.5213 131.176 95.0557C131.847 96.8208 132.338 98.6573 132.636 100.516C132.73 101.084 133.217 101.499 133.79 101.499H137.666V108.499H133.79C133.217 108.499 132.73 108.914 132.639 109.48C132.34 111.339 131.848 113.175 131.178 114.94C130.975 115.475 131.19 116.079 131.686 116.365L135.04 118.301L131.54 124.363L128.182 122.424C127.686 122.138 127.057 122.253 126.696 122.696C125.503 124.155 124.158 125.501 122.699 126.693C122.256 127.054 122.14 127.684 122.427 128.179L124.366 131.537L117.294 135.62L118.46 137.641L126.543 132.974C127.102 132.653 127.292 131.939 126.97 131.381L124.935 127.856C125.975 126.948 126.953 125.97 127.861 124.93L131.385 126.965C131.944 127.286 132.656 127.095 132.979 126.538L137.646 118.455C137.968 117.898 137.777 117.184 137.219 116.862L133.699 114.829C134.147 113.523 134.505 112.184 134.769 110.83L138.832 110.831C139.476 110.831 139.999 110.308 139.999 109.664V100.331C139.999 99.6891 139.476 99.1662 138.832 99.1662H138.832Z" fill="#1A7BFF"/>
<defs>
<filter id="filter0_d_71_69" x="0" y="0" width="209.631" height="209.631" filterUnits="userSpaceOnUse" color-interpolation-filters="sRGB">
<feFlood flood-opacity="0" result="BackgroundImageFix"/>
<feColorMatrix in="SourceAlpha" type="matrix" values="0 0 0 0 0 0 0 0 0 0 0 0 0 0 0 0 0 0 127 0" result="hardAlpha"/>
<feOffset/>
<feGaussianBlur stdDeviation="20"/>
<feComposite in2="hardAlpha" operator="out"/>
<feColorMatrix type="matrix" values="0 0 0 0 0 0 0 0 0 0 0 0 0 0 0 0 0 0 0.05 0"/>
<feBlend mode="normal" in2="BackgroundImageFix" result="effect1_dropShadow_71_69"/>
<feBlend mode="normal" in="SourceGraphic" in2="effect1_dropShadow_71_69" result="shape"/>
</filter>
</defs>
</svg>
