<svg width="210" height="210" viewBox="0 0 210 210" fill="none" xmlns="http://www.w3.org/2000/svg">
<g filter="url(#filter0_d_71_27)">
<circle cx="104.815" cy="104.815" r="64.8154" fill="white"/>
<circle cx="104.815" cy="104.815" r="64.3154" stroke="#1A7BFF"/>
</g>
<mask id="path-3-outside-1_71_27" maskUnits="userSpaceOnUse" x="73" y="70" width="64" height="70" fill="black">
<rect fill="white" x="73" y="70" width="64" height="70"/>
<path d="M135.597 102.991L133.002 102.71C132.721 101.027 132.019 99.413 131.037 98.0099L132.651 95.9753C132.791 95.7648 132.791 95.4842 132.581 95.2737L130.757 93.4497C130.546 93.2392 130.265 93.2392 130.055 93.3795L128.02 94.993C126.617 94.0108 125.004 93.3795 123.32 93.0286L123.039 90.4328C123.039 90.1522 122.759 89.9417 122.548 89.9417H119.952C119.672 89.9417 119.461 90.1522 119.461 90.4328L119.181 93.0286C117.848 93.2391 116.585 93.7302 115.392 94.4318V73.736C115.392 72.2627 114.199 71 112.656 71H76.736C75.2627 71 74 72.1927 74 73.736V135.964C74 137.438 75.1927 138.7 76.736 138.7H112.727C114.2 138.7 115.463 137.508 115.463 135.964V115.057C116.655 115.759 117.918 116.179 119.251 116.46L119.532 119.056C119.532 119.337 119.812 119.547 120.023 119.547H122.619C122.899 119.547 123.11 119.337 123.11 119.056L123.39 116.46C125.074 116.179 126.688 115.478 128.091 114.496L130.125 116.109C130.336 116.25 130.617 116.25 130.827 116.039L132.651 114.215C132.862 114.005 132.862 113.724 132.721 113.513L131.108 111.479C132.09 110.076 132.721 108.462 133.072 106.778L135.668 106.498C135.949 106.498 136.159 106.217 136.159 106.007V103.411C136.089 103.271 135.878 102.99 135.598 102.99L135.597 102.991ZM110.061 96.0455L111.674 98.0802C110.692 99.4833 110.061 101.097 109.71 102.781L107.114 103.061C106.833 103.061 106.623 103.342 106.623 103.552V106.148C106.623 106.429 106.833 106.639 107.114 106.639L109.71 106.92C109.99 108.604 110.692 110.217 111.674 111.62L110.061 113.655C109.92 113.865 109.92 114.146 110.131 114.356L111.955 116.181C112.165 116.391 112.446 116.391 112.656 116.251L114.48 114.777V129.37H75.0516V80.3999H114.41V94.9925L112.586 93.5192C112.375 93.3789 112.095 93.3789 111.884 93.5893L110.06 95.4134C109.85 95.5537 109.85 95.8343 110.06 96.0448L110.061 96.0455ZM76.7366 71.9823H112.727C113.639 71.9823 114.411 72.754 114.411 73.666V79.3488H75.0528V73.666C75.0528 72.754 75.8246 71.9823 76.7366 71.9823ZM112.798 137.649H76.7366C75.8246 137.649 75.0528 136.877 75.0528 135.965V130.282H114.411V135.965C114.481 136.877 113.709 137.649 112.797 137.649H112.798ZM135.038 105.657L132.512 105.938C132.302 105.938 132.091 106.148 132.021 106.359C131.74 108.113 131.039 109.867 129.986 111.27C129.846 111.48 129.846 111.761 129.986 111.901L131.6 113.866L130.477 115.058L128.513 113.445C128.303 113.305 128.022 113.305 127.882 113.445C126.408 114.497 124.725 115.269 122.971 115.479C122.76 115.479 122.55 115.69 122.55 115.971L122.269 118.496H120.656L120.375 115.971C120.375 115.76 120.165 115.55 119.954 115.479C118.2 115.199 116.446 114.497 115.043 113.445C114.833 113.305 114.552 113.305 114.412 113.445L112.447 115.058L111.255 113.866L112.868 111.901C113.009 111.691 113.009 111.41 112.868 111.27C111.816 109.797 111.044 108.113 110.834 106.359C110.834 106.148 110.623 105.938 110.342 105.938L107.817 105.657V104.044L110.342 103.763C110.553 103.763 110.763 103.553 110.834 103.342C111.114 101.588 111.816 99.8345 112.868 98.4313C113.009 98.2209 113.009 97.9402 112.868 97.7999L111.255 95.8355L112.447 94.713L114.412 96.3266C114.622 96.4669 114.903 96.4669 115.043 96.3266C116.516 95.2742 118.2 94.5025 119.954 94.2919C120.165 94.2919 120.375 94.0815 120.375 93.8008L120.656 91.2752H122.269L122.55 93.8008C122.55 94.0113 122.76 94.2218 122.971 94.2919C124.725 94.5726 126.479 95.2741 127.882 96.3266C128.092 96.4669 128.373 96.4669 128.513 96.3266L130.477 94.713L131.6 95.8355L129.986 97.7999C129.846 98.0104 129.846 98.291 129.986 98.4313C131.039 99.9046 131.811 101.588 132.021 103.342C132.021 103.553 132.232 103.763 132.512 103.763L135.038 104.044V105.657Z"/>
</mask>
<path d="M135.597 102.991L133.002 102.71C132.721 101.027 132.019 99.413 131.037 98.0099L132.651 95.9753C132.791 95.7648 132.791 95.4842 132.581 95.2737L130.757 93.4497C130.546 93.2392 130.265 93.2392 130.055 93.3795L128.02 94.993C126.617 94.0108 125.004 93.3795 123.32 93.0286L123.039 90.4328C123.039 90.1522 122.759 89.9417 122.548 89.9417H119.952C119.672 89.9417 119.461 90.1522 119.461 90.4328L119.181 93.0286C117.848 93.2391 116.585 93.7302 115.392 94.4318V73.736C115.392 72.2627 114.199 71 112.656 71H76.736C75.2627 71 74 72.1927 74 73.736V135.964C74 137.438 75.1927 138.7 76.736 138.7H112.727C114.2 138.7 115.463 137.508 115.463 135.964V115.057C116.655 115.759 117.918 116.179 119.251 116.46L119.532 119.056C119.532 119.337 119.812 119.547 120.023 119.547H122.619C122.899 119.547 123.11 119.337 123.11 119.056L123.39 116.46C125.074 116.179 126.688 115.478 128.091 114.496L130.125 116.109C130.336 116.25 130.617 116.25 130.827 116.039L132.651 114.215C132.862 114.005 132.862 113.724 132.721 113.513L131.108 111.479C132.09 110.076 132.721 108.462 133.072 106.778L135.668 106.498C135.949 106.498 136.159 106.217 136.159 106.007V103.411C136.089 103.271 135.878 102.99 135.598 102.99L135.597 102.991ZM110.061 96.0455L111.674 98.0802C110.692 99.4833 110.061 101.097 109.71 102.781L107.114 103.061C106.833 103.061 106.623 103.342 106.623 103.552V106.148C106.623 106.429 106.833 106.639 107.114 106.639L109.71 106.92C109.99 108.604 110.692 110.217 111.674 111.62L110.061 113.655C109.92 113.865 109.92 114.146 110.131 114.356L111.955 116.181C112.165 116.391 112.446 116.391 112.656 116.251L114.48 114.777V129.37H75.0516V80.3999H114.41V94.9925L112.586 93.5192C112.375 93.3789 112.095 93.3789 111.884 93.5893L110.06 95.4134C109.85 95.5537 109.85 95.8343 110.06 96.0448L110.061 96.0455ZM76.7366 71.9823H112.727C113.639 71.9823 114.411 72.754 114.411 73.666V79.3488H75.0528V73.666C75.0528 72.754 75.8246 71.9823 76.7366 71.9823ZM112.798 137.649H76.7366C75.8246 137.649 75.0528 136.877 75.0528 135.965V130.282H114.411V135.965C114.481 136.877 113.709 137.649 112.797 137.649H112.798ZM135.038 105.657L132.512 105.938C132.302 105.938 132.091 106.148 132.021 106.359C131.74 108.113 131.039 109.867 129.986 111.27C129.846 111.48 129.846 111.761 129.986 111.901L131.6 113.866L130.477 115.058L128.513 113.445C128.303 113.305 128.022 113.305 127.882 113.445C126.408 114.497 124.725 115.269 122.971 115.479C122.76 115.479 122.55 115.69 122.55 115.971L122.269 118.496H120.656L120.375 115.971C120.375 115.76 120.165 115.55 119.954 115.479C118.2 115.199 116.446 114.497 115.043 113.445C114.833 113.305 114.552 113.305 114.412 113.445L112.447 115.058L111.255 113.866L112.868 111.901C113.009 111.691 113.009 111.41 112.868 111.27C111.816 109.797 111.044 108.113 110.834 106.359C110.834 106.148 110.623 105.938 110.342 105.938L107.817 105.657V104.044L110.342 103.763C110.553 103.763 110.763 103.553 110.834 103.342C111.114 101.588 111.816 99.8345 112.868 98.4313C113.009 98.2209 113.009 97.9402 112.868 97.7999L111.255 95.8355L112.447 94.713L114.412 96.3266C114.622 96.4669 114.903 96.4669 115.043 96.3266C116.516 95.2742 118.2 94.5025 119.954 94.2919C120.165 94.2919 120.375 94.0815 120.375 93.8008L120.656 91.2752H122.269L122.55 93.8008C122.55 94.0113 122.76 94.2218 122.971 94.2919C124.725 94.5726 126.479 95.2741 127.882 96.3266C128.092 96.4669 128.373 96.4669 128.513 96.3266L130.477 94.713L131.6 95.8355L129.986 97.7999C129.846 98.0104 129.846 98.291 129.986 98.4313C131.039 99.9046 131.811 101.588 132.021 103.342C132.021 103.553 132.232 103.763 132.512 103.763L135.038 104.044V105.657Z" fill="#1A7BFF"/>
<path d="M135.597 102.991L133.002 102.71C132.721 101.027 132.019 99.413 131.037 98.0099L132.651 95.9753C132.791 95.7648 132.791 95.4842 132.581 95.2737L130.757 93.4497C130.546 93.2392 130.265 93.2392 130.055 93.3795L128.02 94.993C126.617 94.0108 125.004 93.3795 123.32 93.0286L123.039 90.4328C123.039 90.1522 122.759 89.9417 122.548 89.9417H119.952C119.672 89.9417 119.461 90.1522 119.461 90.4328L119.181 93.0286C117.848 93.2391 116.585 93.7302 115.392 94.4318V73.736C115.392 72.2627 114.199 71 112.656 71H76.736C75.2627 71 74 72.1927 74 73.736V135.964C74 137.438 75.1927 138.7 76.736 138.7H112.727C114.2 138.7 115.463 137.508 115.463 135.964V115.057C116.655 115.759 117.918 116.179 119.251 116.46L119.532 119.056C119.532 119.337 119.812 119.547 120.023 119.547H122.619C122.899 119.547 123.11 119.337 123.11 119.056L123.39 116.46C125.074 116.179 126.688 115.478 128.091 114.496L130.125 116.109C130.336 116.25 130.617 116.25 130.827 116.039L132.651 114.215C132.862 114.005 132.862 113.724 132.721 113.513L131.108 111.479C132.09 110.076 132.721 108.462 133.072 106.778L135.668 106.498C135.949 106.498 136.159 106.217 136.159 106.007V103.411C136.089 103.271 135.878 102.99 135.598 102.99L135.597 102.991ZM110.061 96.0455L111.674 98.0802C110.692 99.4833 110.061 101.097 109.71 102.781L107.114 103.061C106.833 103.061 106.623 103.342 106.623 103.552V106.148C106.623 106.429 106.833 106.639 107.114 106.639L109.71 106.92C109.99 108.604 110.692 110.217 111.674 111.62L110.061 113.655C109.92 113.865 109.92 114.146 110.131 114.356L111.955 116.181C112.165 116.391 112.446 116.391 112.656 116.251L114.48 114.777V129.37H75.0516V80.3999H114.41V94.9925L112.586 93.5192C112.375 93.3789 112.095 93.3789 111.884 93.5893L110.06 95.4134C109.85 95.5537 109.85 95.8343 110.06 96.0448L110.061 96.0455ZM76.7366 71.9823H112.727C113.639 71.9823 114.411 72.754 114.411 73.666V79.3488H75.0528V73.666C75.0528 72.754 75.8246 71.9823 76.7366 71.9823ZM112.798 137.649H76.7366C75.8246 137.649 75.0528 136.877 75.0528 135.965V130.282H114.411V135.965C114.481 136.877 113.709 137.649 112.797 137.649H112.798ZM135.038 105.657L132.512 105.938C132.302 105.938 132.091 106.148 132.021 106.359C131.74 108.113 131.039 109.867 129.986 111.27C129.846 111.48 129.846 111.761 129.986 111.901L131.6 113.866L130.477 115.058L128.513 113.445C128.303 113.305 128.022 113.305 127.882 113.445C126.408 114.497 124.725 115.269 122.971 115.479C122.76 115.479 122.55 115.69 122.55 115.971L122.269 118.496H120.656L120.375 115.971C120.375 115.76 120.165 115.55 119.954 115.479C118.2 115.199 116.446 114.497 115.043 113.445C114.833 113.305 114.552 113.305 114.412 113.445L112.447 115.058L111.255 113.866L112.868 111.901C113.009 111.691 113.009 111.41 112.868 111.27C111.816 109.797 111.044 108.113 110.834 106.359C110.834 106.148 110.623 105.938 110.342 105.938L107.817 105.657V104.044L110.342 103.763C110.553 103.763 110.763 103.553 110.834 103.342C111.114 101.588 111.816 99.8345 112.868 98.4313C113.009 98.2209 113.009 97.9402 112.868 97.7999L111.255 95.8355L112.447 94.713L114.412 96.3266C114.622 96.4669 114.903 96.4669 115.043 96.3266C116.516 95.2742 118.2 94.5025 119.954 94.2919C120.165 94.2919 120.375 94.0815 120.375 93.8008L120.656 91.2752H122.269L122.55 93.8008C122.55 94.0113 122.76 94.2218 122.971 94.2919C124.725 94.5726 126.479 95.2741 127.882 96.3266C128.092 96.4669 128.373 96.4669 128.513 96.3266L130.477 94.713L131.6 95.8355L129.986 97.7999C129.846 98.0104 129.846 98.291 129.986 98.4313C131.039 99.9046 131.811 101.588 132.021 103.342C132.021 103.553 132.232 103.763 132.512 103.763L135.038 104.044V105.657Z" stroke="#1A7BFF" stroke-width="0.8" mask="url(#path-3-outside-1_71_27)"/>
<mask id="path-4-outside-2_71_27" maskUnits="userSpaceOnUse" x="86.8918" y="131.388" width="16" height="5" fill="black">
<rect fill="white" x="86.8918" y="131.388" width="16" height="5"/>
<path d="M100.099 132.388H89.4353C88.5934 132.388 87.8918 133.089 87.8918 133.931V134.142C87.8918 134.983 88.5934 135.685 89.4353 135.685H100.029C100.871 135.685 101.572 134.983 101.572 134.142V133.931C101.572 133.089 100.941 132.388 100.099 132.388H100.099ZM100.52 134.071C100.52 134.352 100.31 134.563 100.029 134.563H89.4354C89.1547 134.563 88.9443 134.352 88.9443 134.071V133.861C88.9443 133.58 89.1547 133.37 89.4354 133.37H100.029C100.31 133.37 100.52 133.58 100.52 133.861V134.071Z"/>
</mask>
<path d="M100.099 132.388H89.4353C88.5934 132.388 87.8918 133.089 87.8918 133.931V134.142C87.8918 134.983 88.5934 135.685 89.4353 135.685H100.029C100.871 135.685 101.572 134.983 101.572 134.142V133.931C101.572 133.089 100.941 132.388 100.099 132.388H100.099ZM100.52 134.071C100.52 134.352 100.31 134.563 100.029 134.563H89.4354C89.1547 134.563 88.9443 134.352 88.9443 134.071V133.861C88.9443 133.58 89.1547 133.37 89.4354 133.37H100.029C100.31 133.37 100.52 133.58 100.52 133.861V134.071Z" fill="#1A7BFF"/>
<path d="M100.099 131.988H89.4353V132.788H100.099V131.988ZM89.4353 131.988C88.3725 131.988 87.4918 132.868 87.4918 133.931H88.2918C88.2918 133.31 88.8143 132.788 89.4353 132.788V131.988ZM87.4918 133.931V134.142H88.2918V133.931H87.4918ZM87.4918 134.142C87.4918 135.204 88.3725 136.085 89.4353 136.085V135.285C88.8143 135.285 88.2918 134.763 88.2918 134.142H87.4918ZM89.4353 136.085H100.029V135.285H89.4353V136.085ZM100.029 136.085C101.092 136.085 101.972 135.204 101.972 134.142H101.172C101.172 134.763 100.65 135.285 100.029 135.285V136.085ZM101.972 134.142V133.931H101.172V134.142H101.972ZM101.972 133.931C101.972 132.893 101.186 131.988 100.099 131.988V132.788C100.696 132.788 101.172 133.285 101.172 133.931H101.972ZM100.099 132.788H100.099V131.988H100.099V132.788ZM100.12 134.071C100.12 134.109 100.107 134.129 100.097 134.139C100.087 134.15 100.067 134.163 100.029 134.163V134.963C100.53 134.963 100.92 134.573 100.92 134.071H100.12ZM100.029 134.163H89.4354V134.963H100.029V134.163ZM89.4354 134.163C89.3978 134.163 89.3777 134.15 89.3674 134.139C89.3571 134.129 89.3443 134.109 89.3443 134.071H88.5443C88.5443 134.573 88.9338 134.963 89.4354 134.963V134.163ZM89.3443 134.071V133.861H88.5443V134.071H89.3443ZM89.3443 133.861C89.3443 133.823 89.3571 133.803 89.3674 133.793C89.3777 133.783 89.3978 133.77 89.4354 133.77V132.97C88.9338 132.97 88.5443 133.359 88.5443 133.861H89.3443ZM89.4354 133.77H100.029V132.97H89.4354V133.77ZM100.029 133.77C100.067 133.77 100.087 133.783 100.097 133.793C100.107 133.803 100.12 133.823 100.12 133.861H100.92C100.92 133.359 100.53 132.97 100.029 132.97V133.77ZM100.12 133.861V134.071H100.92V133.861H100.12Z" fill="#1A7BFF" mask="url(#path-4-outside-2_71_27)"/>
<path d="M89.7966 75.4896V75.5094L89.8005 75.5288C89.8823 75.9378 90.1499 76.2508 90.5578 76.2508H98.9064C99.2807 76.2508 99.6676 75.9669 99.6676 75.4896C99.6676 75.1153 99.3836 74.7283 98.9064 74.7283H90.5578C90.1835 74.7283 89.7966 75.0123 89.7966 75.4896Z" fill="#1A7BFF" stroke="#1A7BFF" stroke-width="0.4"/>
<path d="M87.3901 83.3471V83.3225L87.3842 83.2986C87.3422 83.1306 87.2578 82.9592 87.1359 82.8261C87.0134 82.6925 86.8407 82.5859 86.6289 82.5859H77.9997C77.6254 82.5859 77.2385 82.8699 77.2385 83.3471V91.2047C77.2385 91.579 77.5225 91.9659 77.9997 91.9659H86.6289C87.0032 91.9659 87.3901 91.6819 87.3901 91.2047V83.3471ZM85.9379 90.4434H78.761V84.0382H85.9379V90.4434Z" fill="#1A7BFF" stroke="#1A7BFF" stroke-width="0.4"/>
<path d="M99.8784 83.3471V83.3225L99.8725 83.2986C99.7909 82.9722 99.5277 82.5859 99.0471 82.5859C99.0471 82.5859 99.047 82.5859 99.047 82.5859H90.488C90.1137 82.5859 89.7268 82.8699 89.7268 83.3471V91.2047C89.7268 91.579 90.0107 91.9659 90.488 91.9659H99.1172C99.4915 91.9659 99.8784 91.6819 99.8784 91.2047V83.3471ZM98.356 90.4434H91.1791V84.0382H98.356V90.4434Z" fill="#1A7BFF" stroke="#1A7BFF" stroke-width="0.4"/>
<path d="M111.534 91.9659H111.559L111.583 91.9599C111.751 91.9179 111.922 91.8336 112.055 91.7116C112.189 91.5891 112.295 91.4164 112.295 91.2047V83.3471C112.295 82.9728 112.011 82.5859 111.534 82.5859H102.905C102.531 82.5859 102.144 82.8699 102.144 83.3471V91.2047C102.144 91.579 102.428 91.9659 102.905 91.9659H111.534ZM110.843 90.4434H103.666V84.0382H110.843V90.4434Z" fill="#1A7BFF" stroke="#1A7BFF" stroke-width="0.4"/>
<path d="M86.4289 94.3016V94.3017H77.9997C77.6254 94.3017 77.2385 94.5857 77.2385 95.0629V102.92C77.2385 103.295 77.5225 103.682 77.9997 103.682H86.6289C87.0032 103.682 87.3901 103.398 87.3901 102.92V94.9927V94.9681L87.3842 94.9442C87.2982 94.6003 87.0254 94.3016 86.6289 94.3016H86.4289ZM85.9379 102.159H78.761V95.7539H85.9379V102.159Z" fill="#1A7BFF" stroke="#1A7BFF" stroke-width="0.4"/>
<path d="M98.5395 94.3016L98.5396 94.3017H90.488C90.1137 94.3017 89.7268 94.5857 89.7268 95.0629V102.92C89.7268 103.295 90.0107 103.682 90.488 103.682H99.1172C99.4915 103.682 99.8784 103.398 99.8784 102.92V94.9927V94.9681L99.8725 94.9442C99.8289 94.7699 99.7391 94.6075 99.596 94.4883C99.4513 94.3677 99.2645 94.3016 99.047 94.3016H98.5395ZM98.356 102.159H91.1791V95.7539H98.356V102.159Z" fill="#1A7BFF" stroke="#1A7BFF" stroke-width="0.4"/>
<path d="M87.3901 118.425V118.401L87.3842 118.377C87.3422 118.209 87.2578 118.037 87.1359 117.904C87.0134 117.771 86.8407 117.664 86.6289 117.664H77.9997C77.6254 117.664 77.2385 117.948 77.2385 118.425V126.283C77.2385 126.657 77.5225 127.044 77.9997 127.044H86.6289C87.0032 127.044 87.3901 126.76 87.3901 126.283V118.425ZM85.9379 125.592H78.761V119.187H85.9379V125.592Z" fill="#1A7BFF" stroke="#1A7BFF" stroke-width="0.4"/>
<path d="M99.8784 118.425V118.401L99.8725 118.377C99.7909 118.05 99.5277 117.664 99.0471 117.664C99.0471 117.664 99.047 117.664 99.047 117.664H90.488C90.1137 117.664 89.7268 117.948 89.7268 118.425V126.283C89.7268 126.657 90.0107 127.044 90.488 127.044H99.1172C99.4915 127.044 99.8784 126.76 99.8784 126.283V118.425ZM98.356 125.592H91.1791V119.187H98.356V125.592Z" fill="#1A7BFF" stroke="#1A7BFF" stroke-width="0.4"/>
<path d="M102.215 118.625V126.283C102.215 126.657 102.499 127.044 102.976 127.044H111.605C111.979 127.044 112.366 126.76 112.366 126.283V118.425C112.366 118.051 112.082 117.664 111.605 117.664H102.906C102.695 117.664 102.519 117.77 102.401 117.911C102.284 118.052 102.215 118.237 102.215 118.425V118.625H102.215ZM103.667 119.187H110.844V125.592H103.667V119.187Z" fill="#1A7BFF" stroke="#1A7BFF" stroke-width="0.4"/>
<path d="M121.356 96.5466C116.826 96.5466 113.088 100.284 113.088 104.814C113.088 109.345 116.826 113.082 121.356 113.082C125.886 113.082 129.624 109.345 129.624 104.814C129.624 100.285 125.958 96.5466 121.356 96.5466ZM121.356 111.63C117.608 111.63 114.54 108.563 114.54 104.814C114.54 101.066 117.608 97.9989 121.356 97.9989C125.104 97.9989 128.172 101.066 128.172 104.814C128.172 108.563 125.104 111.63 121.356 111.63Z" fill="#1A7BFF" stroke="#1A7BFF" stroke-width="0.4"/>
<defs>
<filter id="filter0_d_71_27" x="0" y="0" width="209.631" height="209.631" filterUnits="userSpaceOnUse" color-interpolation-filters="sRGB">
<feFlood flood-opacity="0" result="BackgroundImageFix"/>
<feColorMatrix in="SourceAlpha" type="matrix" values="0 0 0 0 0 0 0 0 0 0 0 0 0 0 0 0 0 0 127 0" result="hardAlpha"/>
<feOffset/>
<feGaussianBlur stdDeviation="20"/>
<feComposite in2="hardAlpha" operator="out"/>
<feColorMatrix type="matrix" values="0 0 0 0 0 0 0 0 0 0 0 0 0 0 0 0 0 0 0.05 0"/>
<feBlend mode="normal" in2="BackgroundImageFix" result="effect1_dropShadow_71_27"/>
<feBlend mode="normal" in="SourceGraphic" in2="effect1_dropShadow_71_27" result="shape"/>
</filter>
</defs>
</svg>
