<svg width="210" height="210" viewBox="0 0 210 210" fill="none" xmlns="http://www.w3.org/2000/svg">
<g filter="url(#filter0_d_71_55)">
<circle cx="104.815" cy="104.815" r="64.8154" fill="white"/>
<circle cx="104.815" cy="104.815" r="64.3154" stroke="#1A7BFF"/>
</g>
<path d="M85.8445 121.46C85.3578 121.46 84.961 121.081 84.9429 120.577V120.505V116.502C84.9429 115.077 86.097 113.923 87.5217 113.923L92.3544 113.922C92.4806 113.58 92.6249 113.237 92.7693 112.913L89.3612 109.505C88.8744 109.018 88.6039 108.369 88.6039 107.683C88.6039 106.998 88.8744 106.349 89.3612 105.862L92.1924 103.031C93.2022 102.021 94.8431 102.021 95.8529 103.031L99.2609 106.439C99.5853 106.276 99.9283 106.15 100.271 106.024V101.209C100.271 99.7845 101.425 98.6304 102.85 98.6304H106.852C108.277 98.6304 109.431 99.7845 109.431 101.209V106.024C109.774 106.15 110.117 106.294 110.441 106.439L113.849 103.031C114.859 102.021 116.5 102.021 117.509 103.031L120.341 105.862C120.827 106.349 121.098 106.998 121.098 107.683C121.098 108.369 120.827 109.017 120.341 109.505L116.933 112.913C117.095 113.237 117.221 113.58 117.348 113.922H122.162C123.587 113.922 124.741 115.077 124.741 116.501L124.74 120.504V120.576C124.722 121.081 124.307 121.46 123.802 121.441C123.298 121.423 122.919 121.008 122.937 120.504V120.504V116.501C122.937 116.068 122.595 115.726 122.162 115.726H116.698C116.301 115.726 115.959 115.473 115.832 115.095C115.634 114.427 115.364 113.778 115.021 113.147C114.84 112.805 114.894 112.372 115.183 112.083L119.042 108.224C119.187 108.079 119.277 107.881 119.277 107.683C119.277 107.485 119.205 107.286 119.042 107.142L116.211 104.31C115.904 104.004 115.418 104.004 115.111 104.31L111.252 108.17C110.982 108.44 110.549 108.512 110.188 108.332C109.575 108.008 108.926 107.737 108.24 107.52C107.862 107.412 107.609 107.052 107.609 106.655V101.191C107.609 100.758 107.267 100.416 106.834 100.416H102.831C102.398 100.416 102.056 100.758 102.056 101.191V106.655C102.056 107.052 101.803 107.394 101.424 107.52C100.757 107.718 100.108 107.989 99.4768 108.332C99.1344 108.513 98.7014 108.458 98.4127 108.17L94.5536 104.31C94.2468 104.004 93.76 104.004 93.4538 104.31L90.6226 107.142C90.4783 107.286 90.3883 107.484 90.3883 107.683C90.3883 107.881 90.4602 108.079 90.6226 108.224L94.4818 112.083C94.7704 112.354 94.8242 112.786 94.6442 113.147C94.3199 113.76 94.0493 114.409 93.8325 115.095C93.7244 115.473 93.3639 115.726 92.9671 115.726H87.5033C87.0703 115.726 86.7279 116.068 86.7279 116.501V120.54C86.7466 121.027 86.3679 121.442 85.8449 121.46C85.863 121.46 85.8449 121.46 85.8449 121.46H85.8445Z" fill="#1A7BFF"/>
<path d="M111.107 121.46C111.017 121.46 110.926 121.442 110.818 121.406C110.349 121.243 110.097 120.738 110.241 120.27C110.422 119.693 110.53 119.097 110.53 118.503C110.53 115.365 107.987 112.823 104.85 112.823C101.713 112.823 99.17 115.365 99.17 118.503C99.17 119.116 99.2599 119.711 99.4586 120.27C99.6211 120.738 99.3505 121.261 98.8818 121.406C98.4132 121.55 97.9083 121.298 97.7459 120.829C97.4934 120.072 97.3672 119.296 97.3672 118.503C97.3672 114.373 100.721 111.019 104.851 111.019C108.98 111.019 112.334 114.373 112.334 118.503C112.334 119.296 112.208 120.089 111.955 120.829C111.828 121.208 111.485 121.46 111.107 121.46H111.107Z" fill="#1A7BFF"/>
<path d="M86.656 99.7307C82.4545 99.7307 79.0283 96.3046 79.0283 92.103C79.0283 87.9015 82.4545 84.4753 86.656 84.4753C90.8575 84.4753 94.2837 87.9015 94.2837 92.103C94.2837 96.3046 90.8575 99.7307 86.656 99.7307ZM86.656 86.2788C83.4462 86.2788 80.8317 88.8932 80.8317 92.103C80.8317 95.3129 83.4462 97.9273 86.656 97.9273C89.8658 97.9273 92.4803 95.3129 92.4803 92.103C92.4803 88.8932 89.8658 86.2788 86.656 86.2788Z" fill="#1A7BFF"/>
<path d="M123.026 99.7307C118.825 99.7307 115.398 96.3046 115.398 92.103C115.398 87.9015 118.825 84.4753 123.026 84.4753C127.228 84.4753 130.654 87.9015 130.654 92.103C130.654 96.3046 127.246 99.7307 123.026 99.7307ZM123.026 86.2788C119.816 86.2788 117.202 88.8932 117.202 92.103C117.202 95.3129 119.816 97.9273 123.026 97.9273C126.236 97.9273 128.85 95.3129 128.85 92.103C128.85 88.8932 126.236 86.2788 123.026 86.2788Z" fill="#1A7BFF"/>
<path d="M120.701 95.3491C120.466 95.3491 120.232 95.2591 120.069 95.0785C119.709 94.7361 119.709 94.1587 120.069 93.7982L124.758 89.128C125.118 88.7856 125.678 88.7856 126.038 89.128C126.399 89.4705 126.399 90.0478 126.038 90.4084L121.35 95.0785C121.151 95.2585 120.917 95.3491 120.701 95.3491H120.701Z" fill="#1A7BFF"/>
<path d="M125.371 95.3491C125.136 95.3491 124.902 95.2591 124.739 95.0785L120.051 90.4084C119.691 90.0659 119.691 89.4886 120.051 89.128C120.412 88.7856 120.971 88.7856 121.331 89.128L126.02 93.7982C126.38 94.1406 126.38 94.718 126.02 95.0785C125.839 95.2585 125.605 95.3491 125.371 95.3491H125.371Z" fill="#1A7BFF"/>
<path d="M141.311 131.647H68.3899C66.5148 131.647 65 130.132 65 128.257V125.768C65 125.263 65.3968 124.867 65.9017 124.867H143.8C144.305 124.867 144.702 125.263 144.702 125.768L144.701 128.257C144.701 130.132 143.168 131.647 141.311 131.647H141.311ZM66.8033 126.67V128.256C66.8033 129.14 67.5244 129.843 68.3898 129.843H141.311C142.194 129.843 142.897 129.121 142.897 128.256V126.67H66.8033Z" fill="#1A7BFF"/>
<path d="M136.316 136.624H73.3672C71.4921 136.624 69.9773 135.109 69.9773 133.234V130.746C69.9773 130.241 70.3741 129.844 70.879 129.844C71.3839 129.844 71.7806 130.241 71.7806 130.746V133.234C71.7806 134.118 72.4836 134.821 73.3672 134.821H136.318C137.201 134.821 137.904 134.099 137.904 133.234V130.746C137.904 130.241 138.301 129.844 138.806 129.844C139.311 129.844 139.708 130.241 139.708 130.746V133.234C139.708 135.109 138.193 136.624 136.317 136.624H136.316Z" fill="#1A7BFF"/>
<path d="M137.019 126.671C136.514 126.671 136.117 126.274 136.117 125.769C136.117 125.264 136.514 124.867 137.019 124.867C138.768 124.867 140.193 123.443 140.193 121.694V78.9771C140.193 77.2282 138.768 75.8035 137.019 75.8035H72.6631C70.9141 75.8035 69.4895 77.2282 69.4895 78.9771V121.676C69.4895 123.425 70.9141 124.85 72.6631 124.85C73.168 124.85 73.5647 125.247 73.5647 125.752C73.5647 126.257 73.168 126.653 72.6631 126.653C69.9224 126.653 67.686 124.417 67.686 121.676L67.6866 78.977C67.6866 76.2364 69.9224 74 72.6636 74H137.002C139.743 74 141.979 76.2358 141.979 78.977V121.676C141.997 124.435 139.761 126.671 137.02 126.671L137.019 126.671Z" fill="#1A7BFF"/>
<path d="M135.883 121.46H73.7991C73.2942 121.46 72.8975 121.063 72.8975 120.558L72.898 80.1124C72.898 79.6075 73.2948 79.2107 73.7997 79.2107H135.884C136.389 79.2107 136.785 79.6075 136.785 80.1124V120.558C136.785 121.045 136.389 121.46 135.884 121.46H135.883ZM74.7004 119.657H134.982V81.0148H74.7004V119.657Z" fill="#1A7BFF"/>
<path d="M85.6637 94.9158C85.4294 94.9158 85.1951 94.8258 85.0326 94.6452L83.1575 92.7882C82.815 92.4457 82.815 91.8684 83.1575 91.5078C83.4999 91.1654 84.0773 91.1654 84.4378 91.5078L85.6638 92.7338L88.8555 89.5421C89.1979 89.1997 89.7753 89.1997 90.1358 89.5421C90.4783 89.8846 90.4783 90.4619 90.1358 90.8224L86.2948 94.6635C86.1324 94.8259 85.898 94.9159 85.6637 94.9159L85.6637 94.9158Z" fill="#1A7BFF"/>
<defs>
<filter id="filter0_d_71_55" x="0" y="0" width="209.631" height="209.631" filterUnits="userSpaceOnUse" color-interpolation-filters="sRGB">
<feFlood flood-opacity="0" result="BackgroundImageFix"/>
<feColorMatrix in="SourceAlpha" type="matrix" values="0 0 0 0 0 0 0 0 0 0 0 0 0 0 0 0 0 0 127 0" result="hardAlpha"/>
<feOffset/>
<feGaussianBlur stdDeviation="20"/>
<feComposite in2="hardAlpha" operator="out"/>
<feColorMatrix type="matrix" values="0 0 0 0 0 0 0 0 0 0 0 0 0 0 0 0 0 0 0.05 0"/>
<feBlend mode="normal" in2="BackgroundImageFix" result="effect1_dropShadow_71_55"/>
<feBlend mode="normal" in="SourceGraphic" in2="effect1_dropShadow_71_55" result="shape"/>
</filter>
</defs>
</svg>
