<svg width="210" height="210" viewBox="0 0 210 210" fill="none" xmlns="http://www.w3.org/2000/svg">
<g filter="url(#filter0_d_71_83)">
<circle cx="104.815" cy="104.815" r="64.8154" fill="white"/>
<circle cx="104.815" cy="104.815" r="64.3154" stroke="#1A7BFF"/>
</g>
<path d="M75.4206 98.3863C75.8563 99.5578 76.5459 100.697 77.3974 101.529C77.8806 102 78.4146 102.373 78.9853 102.6C79.3766 102.755 79.786 102.841 80.206 102.841C80.6259 102.841 81.0359 102.755 81.4278 102.6C82.0173 102.366 82.5701 101.975 83.0655 101.48C83.8972 100.649 84.5699 99.5286 84.9967 98.3768C85.326 98.2803 85.6699 97.6656 85.8103 96.8796C85.9629 96.0268 85.8167 95.2828 85.4892 95.1589C85.5003 94.9506 85.5085 94.7407 85.5085 94.526C85.5003 91.4344 83.689 89.6387 80.8313 89.4463C78.3386 89.2784 76.4628 90.2686 75.6077 91.9138C75.3199 92.4671 75.155 93.1596 75.093 93.9118C74.9965 94.3031 74.9403 94.7108 74.9403 95.1307H74.9497V95.1407C74.9438 95.1412 74.9368 95.1412 74.9321 95.1424C74.5672 95.2056 74.4016 95.9823 74.5625 96.8784C74.7069 97.7019 75.0783 98.3376 75.4205 98.3861L75.4206 98.3863ZM75.5019 96.083C75.5381 95.9783 75.5855 95.8959 75.6469 95.8526C75.6721 95.835 75.7007 95.8216 75.73 95.8175C75.7978 95.8058 75.8692 95.8315 75.9382 95.8871H75.9388V95.8701C75.9633 95.6379 76.2727 93.6095 78.2262 93.7896C78.2262 93.7896 79.9382 94.4196 81.4963 93.8628C81.663 93.8592 81.8267 93.8575 81.9776 93.8628C82.6233 93.8861 83.0643 94.2207 83.5281 94.4371C83.5111 94.2242 83.3468 94.006 83.3555 93.8628C83.4304 93.8838 83.4971 93.9154 83.5626 93.9511C83.8948 94.3055 84.2182 94.9009 84.4738 95.8748V95.8877C84.4744 95.8877 84.4762 95.8871 84.4762 95.8871C84.4762 95.8871 84.4767 95.8871 84.4767 95.8877L84.4791 95.8824C84.5469 95.8298 84.6148 95.8064 84.6809 95.8169C84.6984 95.8204 84.7136 95.8251 84.7294 95.8327C84.9435 95.9327 85.0335 96.4298 84.933 96.9972C84.8558 97.4323 84.6856 97.7903 84.5042 97.9441C84.4329 98.0055 84.3586 98.033 84.2873 98.0201C84.2481 98.0137 84.2124 97.9944 84.1796 97.964C83.7831 99.1934 83.0309 100.418 82.0816 101.162C81.5149 101.605 80.8774 101.878 80.2054 101.878C79.5462 101.878 78.9233 101.616 78.3647 101.19C77.3974 100.45 76.6306 99.2096 76.2299 97.9651C76.1972 97.9943 76.1621 98.0148 76.1217 98.0212C76.0398 98.0353 75.9533 97.9943 75.8702 97.9124C75.7035 97.7446 75.5497 97.4054 75.4778 96.9977C75.4719 96.9708 75.4701 96.9456 75.4661 96.9187C75.4707 96.6327 75.4836 96.3561 75.5017 96.0829L75.5019 96.083Z" fill="#1A7BFF"/>
<path d="M81.0371 115.496C81.0371 116.428 79.6387 116.428 79.6387 115.496C79.6387 114.564 81.0371 114.564 81.0371 115.496Z" fill="#1A7BFF"/>
<path d="M124.207 98.3863C124.644 99.5578 125.333 100.697 126.185 101.529C126.665 102 127.2 102.373 127.772 102.6C128.165 102.755 128.573 102.841 128.994 102.841C129.415 102.841 129.822 102.755 130.214 102.6C130.804 102.366 131.357 101.975 131.852 101.48C132.685 100.649 133.357 99.5286 133.784 98.3768C134.114 98.2803 134.457 97.6656 134.598 96.8796C134.751 96.0268 134.606 95.2828 134.277 95.1589C134.288 94.9506 134.296 94.7407 134.296 94.526C134.286 91.4344 132.476 89.6387 129.618 89.4463C127.126 89.2784 125.25 90.2686 124.395 91.9138C124.108 92.4671 123.943 93.1596 123.881 93.9118C123.786 94.3031 123.728 94.7108 123.728 95.1307H123.738V95.1407C123.73 95.1412 123.724 95.1412 123.72 95.1424C123.354 95.2056 123.187 95.9823 123.35 96.8784C123.495 97.7019 123.866 98.3376 124.207 98.3861L124.207 98.3863ZM124.289 96.083C124.326 95.9783 124.373 95.8959 124.434 95.8526C124.46 95.835 124.487 95.8216 124.517 95.8175C124.586 95.8058 124.657 95.8315 124.726 95.8871H124.727V95.8701C124.752 95.6379 125.06 93.6095 127.015 93.7896C127.015 93.7896 128.727 94.4196 130.285 93.8628C130.452 93.8592 130.617 93.8575 130.765 93.8628C131.411 93.8861 131.852 94.2207 132.317 94.4371C132.3 94.2242 132.135 94.006 132.144 93.8628C132.219 93.8838 132.286 93.9154 132.351 93.9511C132.683 94.3055 133.005 94.9009 133.262 95.8748C133.263 95.8789 133.263 95.883 133.263 95.8877C133.263 95.8877 133.265 95.8871 133.266 95.8871V95.8877L133.268 95.8824C133.336 95.8298 133.404 95.8064 133.471 95.8169C133.489 95.8204 133.503 95.8251 133.521 95.8327C133.736 95.9327 133.825 96.4298 133.724 96.9972C133.647 97.4323 133.477 97.7903 133.295 97.9441C133.223 98.0055 133.147 98.033 133.077 98.0201C133.037 98.0137 133.001 97.9944 132.968 97.964C132.572 99.1934 131.82 100.418 130.87 101.162C130.302 101.605 129.666 101.878 128.994 101.878C128.337 101.878 127.714 101.616 127.155 101.19C126.189 100.45 125.423 99.2096 125.02 97.9651C124.988 97.9943 124.953 98.0148 124.912 98.0212C124.829 98.0353 124.744 97.9943 124.659 97.9124C124.494 97.7446 124.338 97.4054 124.266 96.9977C124.261 96.9708 124.258 96.9456 124.254 96.9187C124.258 96.6327 124.269 96.3561 124.289 96.0829L124.289 96.083Z" fill="#1A7BFF"/>
<path d="M140.192 123.211C140.457 123.219 140.665 123.436 140.666 123.703V123.703C140.666 123.975 140.448 124.193 140.176 124.193H119.142C118.752 124.825 118.054 125.259 117.25 125.259L92.2142 125.259C91.4121 125.259 90.7164 124.829 90.3246 124.194H69.2874C69.0164 124.194 68.7972 123.975 68.7972 123.704C68.7972 123.432 69.0177 123.213 69.2874 123.213H89.9998C89.9948 123.175 89.9905 123.135 89.9881 123.095H70.6011C69.6357 123.095 68.8506 122.312 68.8459 121.346L66.9015 110.079L66.9 110.071L66.9 110.062C66.8981 109.08 67.6851 108.29 68.6535 108.29H68.6536L69.1621 108.29C69.1727 108.244 69.1846 108.197 69.1977 108.151L69.1979 108.15C69.8251 105.992 70.722 104.864 71.536 104.261C72.2416 103.739 72.8797 103.617 73.1926 103.558C73.2402 103.549 73.2803 103.541 73.3119 103.534C73.312 103.534 73.312 103.534 73.312 103.534L73.3348 103.631C73.8323 103.514 74.3831 103.482 74.8869 103.453C75.3223 103.428 75.7224 103.404 76.0227 103.33L140.192 123.211ZM140.192 123.211L140.191 123.21H140.176H119.463C119.467 123.173 119.471 123.134 119.473 123.094H138.861C139.826 123.094 140.612 122.312 140.615 121.363L142.562 110.063L142.564 110.055V110.046C142.564 109.078 141.776 108.289 140.808 108.289L139.986 108.29C139.976 108.244 139.964 108.197 139.951 108.15L139.951 108.149C139.323 105.992 138.426 104.863 137.612 104.261C136.907 103.739 136.27 103.617 135.957 103.558C135.909 103.548 135.868 103.541 135.837 103.533L135.837 103.533C135.339 103.417 134.791 103.384 134.297 103.355L134.285 103.354C133.788 103.325 133.355 103.3 133.057 103.207L132.942 103.171L132.928 103.291C132.904 103.49 132.789 103.689 132.585 103.877C132.381 104.065 132.092 104.237 131.735 104.383C131.02 104.676 130.046 104.858 128.968 104.858C127.892 104.858 126.918 104.676 126.203 104.383C125.846 104.237 125.557 104.064 125.352 103.876C125.148 103.688 125.033 103.49 125.009 103.291L124.994 103.171L124.88 103.207C124.583 103.299 124.152 103.324 123.658 103.353L123.64 103.354C123.146 103.383 122.599 103.416 122.101 103.533M140.192 123.211L122.101 103.533M122.101 103.533C122.071 103.54 122.033 103.548 121.987 103.556C121.736 103.605 121.266 103.696 120.722 104.008C120.086 104.372 119.352 105.036 118.717 106.277L118.672 106.277C118.658 106.212 118.641 106.144 118.621 106.078C118.621 106.078 118.621 106.078 118.621 106.078L118.525 106.106M122.101 103.533L111.338 100.033C111.985 100.07 112.692 100.111 113.329 100.261C113.373 100.271 113.427 100.282 113.49 100.294C114.361 100.461 117.033 100.973 118.525 106.106M118.525 106.106C118.552 106.196 118.573 106.289 118.591 106.378L118.525 106.106ZM95.7058 100.164C95.7058 100.164 95.7059 100.164 95.7059 100.164L95.7286 100.261L95.7058 100.164ZM95.7058 100.164C95.6647 100.173 95.6128 100.183 95.5513 100.195C95.149 100.271 94.3348 100.426 93.433 101.094C92.3924 101.864 91.2421 103.309 90.4371 106.078L90.437 106.079C90.424 106.124 90.4119 106.17 90.4008 106.216M95.7058 100.164L90.4008 106.216M90.4008 106.216C89.7738 105.014 89.0533 104.366 88.4279 104.007C87.881 103.694 87.4088 103.604 87.1577 103.556C87.1135 103.548 87.0762 103.54 87.0465 103.534C87.0464 103.534 87.0464 103.534 87.0463 103.534L87.0239 103.631M90.4008 106.216L80.1797 104.958C82.2752 104.958 84.0002 104.277 84.2204 103.402C84.2165 103.401 84.2126 103.4 84.2088 103.398L84.2387 103.303L84.338 103.315C84.3374 103.32 84.3367 103.325 84.336 103.33C84.6378 103.405 85.0402 103.429 85.4775 103.454C85.98 103.483 86.5287 103.515 87.0239 103.631M87.0239 103.631C87.0556 103.638 87.0947 103.646 87.1404 103.655C87.6908 103.76 89.203 104.049 90.3711 106.378L87.0239 103.631ZM69.2676 121.601C69.2618 121.57 69.2598 121.541 69.2574 121.506L69.2676 121.601ZM140.809 108.682L140.863 108.682C141.586 108.71 142.164 109.305 142.171 110.018L140.223 121.32L140.222 121.328V121.337C140.222 121.618 140.137 121.878 139.988 122.097L139.988 122.097C139.743 122.46 139.328 122.699 138.861 122.699L119.537 122.698L121.952 108.681L140.809 108.682ZM119.028 123.026C119.028 123.138 119.018 123.249 118.998 123.354L118.992 123.383C118.826 124.193 118.109 124.804 117.253 124.804H92.2149C91.2357 124.804 90.4367 124.006 90.435 123.003L90.435 122.995L90.4336 122.986L87.9329 108.495C87.9375 107.52 88.7325 106.727 89.7109 106.727H119.754C120.731 106.727 121.527 107.52 121.534 108.476L119.03 123.009L119.028 123.018V123.026Z" fill="#1A7BFF" stroke="#1A7BFF" stroke-width="0.2"/>
<path d="M129.825 115.496C129.825 116.428 128.426 116.428 128.426 115.496C128.426 114.564 129.825 114.564 129.825 115.496Z" fill="#1A7BFF"/>
<path d="M98.4085 93.5187C98.9688 95.0253 99.8555 96.4887 100.952 97.5596C101.572 98.1655 102.259 98.6457 102.992 98.9364C103.497 99.1352 104.022 99.2464 104.563 99.2464C105.103 99.2464 105.629 99.1346 106.134 98.9364C106.891 98.6352 107.602 98.1316 108.24 97.4958C109.309 96.4284 110.176 94.9861 110.724 93.5063C111.146 93.3823 111.587 92.5915 111.768 91.5809C111.964 90.4848 111.779 89.5292 111.357 89.369C111.372 89.1023 111.38 88.8309 111.38 88.5542C111.37 84.5806 109.041 82.2696 105.368 82.0235C102.162 81.8088 99.75 83.0815 98.65 85.1964C98.2803 85.9076 98.068 86.7989 97.9885 87.7646C97.8651 88.2687 97.7931 88.7916 97.7931 89.3327H97.8048C97.8048 89.3368 97.8042 89.3409 97.8042 89.3461C97.7961 89.3467 97.7873 89.3467 97.7808 89.3485C97.3124 89.4298 97.0983 90.4293 97.3048 91.5803C97.4913 92.639 97.9692 93.456 98.4084 93.5186L98.4085 93.5187ZM98.5132 90.5581C98.56 90.423 98.6208 90.3177 98.6992 90.2615C98.7319 90.2381 98.7682 90.2224 98.805 90.2153C98.8922 90.1995 98.9834 90.2341 99.0717 90.3048H99.0735C99.0735 90.2984 99.0741 90.2896 99.0741 90.2832C99.1051 89.9849 99.5028 87.3763 102.015 87.6086C102.015 87.6086 104.216 88.4175 106.22 87.7027C106.435 87.6975 106.645 87.6969 106.838 87.7033C107.668 87.7337 108.235 88.1636 108.832 88.4414C108.811 88.1671 108.599 87.8864 108.608 87.7033C108.703 87.7302 108.791 87.7706 108.873 87.8156C109.301 88.2718 109.716 89.0374 110.044 90.2891V90.3049C110.046 90.3049 110.048 90.3043 110.048 90.3032C110.048 90.3032 110.049 90.3032 110.049 90.3038L110.053 90.2979C110.14 90.2301 110.228 90.1991 110.314 90.2131C110.334 90.2166 110.358 90.2242 110.376 90.233C110.651 90.3611 110.768 91.0004 110.639 91.7303C110.541 92.2894 110.321 92.7497 110.089 92.948C109.998 93.027 109.9 93.0626 109.809 93.0463C109.757 93.0381 109.714 93.0129 109.671 92.9743C109.163 94.5541 108.194 96.1285 106.974 97.0854C106.243 97.6557 105.425 98.006 104.562 98.006C103.715 98.006 102.913 97.6709 102.196 97.1217C100.952 96.1701 99.9659 94.5763 99.4501 92.9756C99.408 93.0136 99.3629 93.0393 99.3109 93.0475C99.205 93.0662 99.0945 93.013 98.988 92.9077C98.7734 92.6925 98.5757 92.2556 98.4827 91.7321C98.4751 91.6976 98.4728 91.6642 98.4675 91.6309C98.4733 91.2648 98.4897 90.9086 98.5131 90.5582L98.5132 90.5581Z" fill="#1A7BFF"/>
<path d="M118.94 125.562H90.5224C90.2457 125.562 90.0217 125.788 90.0217 126.065C90.0217 126.342 90.2463 126.567 90.5224 126.567H118.94C119.216 126.567 119.44 126.342 119.44 126.065C119.44 125.788 119.216 125.562 118.94 125.562Z" fill="#1A7BFF"/>
<path d="M105.632 115.515C105.632 116.013 105.229 116.415 104.732 116.415C104.235 116.415 103.833 116.013 103.833 115.515C103.833 115.019 104.235 114.616 104.732 114.616C105.229 114.616 105.632 115.019 105.632 115.515Z" fill="#1A7BFF"/>
<defs>
<filter id="filter0_d_71_83" x="0" y="0" width="209.631" height="209.631" filterUnits="userSpaceOnUse" color-interpolation-filters="sRGB">
<feFlood flood-opacity="0" result="BackgroundImageFix"/>
<feColorMatrix in="SourceAlpha" type="matrix" values="0 0 0 0 0 0 0 0 0 0 0 0 0 0 0 0 0 0 127 0" result="hardAlpha"/>
<feOffset/>
<feGaussianBlur stdDeviation="20"/>
<feComposite in2="hardAlpha" operator="out"/>
<feColorMatrix type="matrix" values="0 0 0 0 0 0 0 0 0 0 0 0 0 0 0 0 0 0 0.05 0"/>
<feBlend mode="normal" in2="BackgroundImageFix" result="effect1_dropShadow_71_83"/>
<feBlend mode="normal" in="SourceGraphic" in2="effect1_dropShadow_71_83" result="shape"/>
</filter>
</defs>
</svg>
