<svg width="210" height="210" viewBox="0 0 210 210" fill="none" xmlns="http://www.w3.org/2000/svg">
<g filter="url(#filter0_d_71_41)">
<circle cx="104.815" cy="104.815" r="64.8154" fill="white"/>
<circle cx="104.815" cy="104.815" r="64.3154" stroke="#1A7BFF"/>
</g>
<path d="M103.833 108.2C103.833 108.844 104.356 109.367 105 109.367C105.309 109.367 105.606 109.244 105.825 109.025C106.044 108.806 106.167 108.509 106.167 108.2V93.2667C106.167 92.6225 105.644 92.1001 105 92.1001C104.356 92.1001 103.833 92.6225 103.833 93.2667V108.2Z" fill="#1A7BFF" stroke="#1A7BFF" stroke-width="0.2"/>
<path d="M99.6665 85.9H110.333C110.643 85.9 110.939 85.7771 111.158 85.5583C111.377 85.3396 111.5 85.0427 111.5 84.7333V74.0667C111.5 73.7573 111.377 73.4604 111.158 73.2417C110.939 73.0229 110.643 72.9 110.333 72.9H99.6665C99.0222 72.9 98.4999 73.4224 98.4999 74.0667V84.7333C98.4999 85.3776 99.0222 85.9 99.6665 85.9ZM109.167 75.2333V83.5667H100.833V75.2333H109.167Z" fill="#1A7BFF" stroke="#1A7BFF" stroke-width="0.2"/>
<path d="M132.733 108.343C132.733 108.343 132.733 108.343 132.733 108.343V108.343L132.734 108.343C133.058 108.355 133.373 108.231 133.602 108.001C133.833 107.772 133.956 107.456 133.944 107.131C133.94 100.422 131.608 93.9214 127.345 88.7411L127.268 88.8047L127.345 88.7411C123.08 83.5598 117.15 80.0196 110.566 78.7251L110.566 78.7251L110.566 78.725C109.922 78.6028 109.302 79.0255 109.179 79.6688C109.057 80.312 109.48 80.9323 110.123 81.0547C116.167 82.2549 121.608 85.5142 125.518 90.2775C129.429 95.041 131.567 101.013 131.567 107.176C131.567 107.82 132.089 108.342 132.733 108.343ZM132.733 108.343C132.732 108.343 132.731 108.343 132.73 108.342L132.733 108.263L132.734 108.254L132.734 108.243L132.733 108.343Z" fill="#1A7BFF" stroke="#1A7BFF" stroke-width="0.2"/>
<path d="M76.1 107.176C76.1 107.749 76.5125 108.225 77.0565 108.324L77.0301 108.353L77.2704 108.343C77.5795 108.33 77.8717 108.196 78.0817 107.968C78.2916 107.741 78.4025 107.44 78.3902 107.132C78.4135 100.975 80.5692 95.0171 84.4901 90.2707C88.4121 85.5243 93.8573 82.2827 99.8992 81.0986C100.542 80.9762 100.965 80.3559 100.842 79.7122C100.72 79.0689 100.1 78.6466 99.4564 78.7688L99.4557 78.7689C92.8755 80.0677 86.9502 83.6094 82.6908 88.7902C78.4314 93.9708 76.1019 100.469 76.1 107.176Z" fill="#1A7BFF" stroke="#1A7BFF" stroke-width="0.2"/>
<path d="M74.0667 115.767H80.4667C80.776 115.767 81.0729 115.644 81.2917 115.425C81.5104 115.206 81.6333 114.909 81.6333 114.6V108.2C81.6333 107.891 81.5104 107.594 81.2917 107.375C81.0729 107.156 80.776 107.033 80.4667 107.033H74.0667C73.4224 107.033 72.9 107.556 72.9 108.2V114.6C72.9 115.244 73.4224 115.767 74.0667 115.767ZM79.3 109.367V113.433H75.2333V109.367H79.3Z" fill="#1A7BFF" stroke="#1A7BFF" stroke-width="0.2"/>
<path d="M78.3335 80.5666H99.6668C100.311 80.5666 100.834 80.0442 100.834 79.3999C100.834 78.7556 100.311 78.2333 99.6668 78.2333H78.3335C77.6892 78.2333 77.1668 78.7556 77.1668 79.3999C77.1668 80.0442 77.6892 80.5666 78.3335 80.5666Z" fill="#1A7BFF" stroke="#1A7BFF" stroke-width="0.2"/>
<path d="M110.334 80.5666H131.667C132.311 80.5666 132.834 80.0442 132.834 79.3999C132.834 78.7556 132.311 78.2333 131.667 78.2333H110.334C109.689 78.2333 109.167 78.7556 109.167 79.3999C109.167 80.0442 109.689 80.5666 110.334 80.5666Z" fill="#1A7BFF" stroke="#1A7BFF" stroke-width="0.2"/>
<path d="M129.533 115.767H135.933C136.243 115.767 136.54 115.644 136.758 115.425C136.977 115.206 137.1 114.909 137.1 114.6V108.2C137.1 107.891 136.977 107.594 136.758 107.375C136.54 107.156 136.243 107.033 135.933 107.033H129.533C128.889 107.033 128.367 107.556 128.367 108.2V114.6C128.367 115.244 128.889 115.767 129.533 115.767ZM134.767 109.367V113.433H130.7V109.367H134.767Z" fill="#1A7BFF" stroke="#1A7BFF" stroke-width="0.2"/>
<path d="M74.1788 82.4879L74.1788 82.488C74.998 83.3067 76.1087 83.7668 77.2667 83.7668C78.4246 83.7668 79.5353 83.3067 80.3545 82.488L80.3545 82.4879C81.1733 81.6688 81.6333 80.558 81.6333 79.4001C81.6333 78.2422 81.1733 77.1315 80.3545 76.3123L80.3545 76.3122C79.5353 75.4935 78.4246 75.0334 77.2667 75.0334C76.1087 75.0334 74.9981 75.4935 74.1788 76.3122L74.1788 76.3123C73.3601 77.1314 72.9 78.2422 72.9 79.4001C72.9 80.558 73.3601 81.6687 74.1788 82.4879ZM75.8288 77.9622C76.21 77.581 76.7275 77.3668 77.2667 77.3668C77.8059 77.3668 78.3233 77.581 78.7045 77.9622C79.0858 78.3435 79.3 78.8609 79.3 79.4001C79.3 79.9393 79.0858 80.4567 78.7045 80.838C78.3233 81.2192 77.8059 81.4334 77.2667 81.4334C76.7275 81.4334 76.21 81.2192 75.8288 80.838C75.4476 80.4567 75.2333 79.9393 75.2333 79.4001C75.2333 78.8609 75.4476 78.3435 75.8288 77.9622Z" fill="#1A7BFF" stroke="#1A7BFF" stroke-width="0.2"/>
<path d="M129.646 82.4879L129.646 82.488C130.465 83.3067 131.576 83.7668 132.733 83.7668C133.891 83.7668 135.002 83.3067 135.821 82.488L135.821 82.4879C136.64 81.6688 137.1 80.558 137.1 79.4001C137.1 78.2422 136.64 77.1315 135.821 76.3123L135.821 76.3122C135.002 75.4935 133.891 75.0334 132.733 75.0334C131.576 75.0334 130.465 75.4935 129.646 76.3122L129.646 76.3123C128.827 77.1314 128.367 78.2422 128.367 79.4001C128.367 80.558 128.827 81.6687 129.646 82.4879ZM131.296 77.9622C131.677 77.581 132.194 77.3668 132.733 77.3668C133.273 77.3668 133.79 77.581 134.171 77.9622C134.553 78.3435 134.767 78.8609 134.767 79.4001C134.767 79.9393 134.553 80.4567 134.171 80.838C133.79 81.2192 133.273 81.4334 132.733 81.4334C132.194 81.4334 131.677 81.2192 131.296 80.838C130.914 80.4567 130.7 79.9393 130.7 79.4001C130.7 78.8609 130.914 78.3435 131.296 77.9622Z" fill="#1A7BFF" stroke="#1A7BFF" stroke-width="0.2"/>
<path d="M101.912 114.488L101.912 114.488C102.731 115.307 103.842 115.767 105 115.767C106.158 115.767 107.268 115.307 108.088 114.488L108.088 114.488C108.906 113.669 109.366 112.558 109.366 111.4C109.366 110.242 108.906 109.131 108.088 108.312L108.088 108.312C107.268 107.493 106.158 107.033 105 107.033C103.842 107.033 102.731 107.493 101.912 108.312L101.912 108.312C101.093 109.131 100.633 110.242 100.633 111.4C100.633 112.558 101.093 113.669 101.912 114.488ZM103.562 109.962C103.943 109.581 104.461 109.367 105 109.367C105.539 109.367 106.056 109.581 106.438 109.962C106.819 110.343 107.033 110.861 107.033 111.4C107.033 111.939 106.819 112.457 106.438 112.838C106.056 113.219 105.539 113.433 105 113.433C104.461 113.433 103.943 113.219 103.562 112.838C103.181 112.457 102.966 111.939 102.966 111.4C102.966 110.861 103.181 110.343 103.562 109.962Z" fill="#1A7BFF" stroke="#1A7BFF" stroke-width="0.2"/>
<path d="M101.352 126.433H101.352H108.649H108.649V126.346L108.649 126.433C109.174 126.43 109.632 126.077 109.769 125.571C110.751 122.142 113.397 119.44 116.806 118.386C117.13 118.289 117.396 118.056 117.535 117.747L117.535 117.747C117.673 117.438 117.671 117.084 117.528 116.776L117.528 116.775L106.051 92.7748L106.051 92.7747L106.047 92.7678C105.831 92.3946 105.432 92.1646 105 92.1646C104.569 92.1646 104.17 92.3946 103.954 92.7678L103.954 92.7677L103.95 92.7748L92.4731 116.775L92.4731 116.775L92.4727 116.776C92.3295 117.084 92.3274 117.438 92.4659 117.747L92.4659 117.747C92.6049 118.056 92.8709 118.289 93.1954 118.386C96.6035 119.44 99.2495 122.142 100.232 125.571C100.369 126.077 100.827 126.43 101.352 126.433ZM114.892 116.618C111.595 118.02 109.029 120.73 107.81 124.1H102.212C100.993 120.73 98.4275 118.02 95.1307 116.618L105.001 95.9726L114.892 116.618Z" fill="#1A7BFF" stroke="#1A7BFF" stroke-width="0.2"/>
<path d="M97.5335 130.7H112.467C112.776 130.7 113.073 130.577 113.292 130.358C113.511 130.14 113.633 129.843 113.633 129.533V125.267C113.633 124.957 113.511 124.661 113.292 124.442C113.073 124.223 112.776 124.1 112.467 124.1H97.5335C96.8892 124.1 96.3668 124.622 96.3668 125.267V129.533C96.3668 130.178 96.8892 130.7 97.5335 130.7ZM111.3 126.433V128.367H98.7001V126.433H111.3Z" fill="#1A7BFF" stroke="#1A7BFF" stroke-width="0.2"/>
<path d="M95.4002 137.1H114.6C114.91 137.1 115.206 136.977 115.425 136.758C115.644 136.54 115.767 136.243 115.767 135.933V129.533C115.767 129.224 115.644 128.927 115.425 128.708C115.206 128.49 114.91 128.367 114.6 128.367H95.4002C94.7559 128.367 94.2335 128.889 94.2335 129.533V135.933C94.2335 136.578 94.7559 137.1 95.4002 137.1ZM113.433 130.7V134.767H96.5668V130.7H113.433Z" fill="#1A7BFF" stroke="#1A7BFF" stroke-width="0.2"/>
<defs>
<filter id="filter0_d_71_41" x="0" y="0" width="209.631" height="209.631" filterUnits="userSpaceOnUse" color-interpolation-filters="sRGB">
<feFlood flood-opacity="0" result="BackgroundImageFix"/>
<feColorMatrix in="SourceAlpha" type="matrix" values="0 0 0 0 0 0 0 0 0 0 0 0 0 0 0 0 0 0 127 0" result="hardAlpha"/>
<feOffset/>
<feGaussianBlur stdDeviation="20"/>
<feComposite in2="hardAlpha" operator="out"/>
<feColorMatrix type="matrix" values="0 0 0 0 0 0 0 0 0 0 0 0 0 0 0 0 0 0 0.05 0"/>
<feBlend mode="normal" in2="BackgroundImageFix" result="effect1_dropShadow_71_41"/>
<feBlend mode="normal" in="SourceGraphic" in2="effect1_dropShadow_71_41" result="shape"/>
</filter>
</defs>
</svg>
