<svg width="210" height="210" viewBox="0 0 210 210" fill="none" xmlns="http://www.w3.org/2000/svg">
<g filter="url(#filter0_d_67_12)">
<circle cx="104.815" cy="104.815" r="64.8154" fill="white"/>
<circle cx="104.815" cy="104.815" r="64.3154" stroke="#1A7BFF"/>
</g>
<path d="M100.99 99.9415L97.9329 96.8844L100.989 93.8326L99.4331 92.2738L94.8147 96.8835L99.432 101.499L100.99 99.9415Z" fill="#1A7BFF"/>
<path d="M110.191 101.5L114.808 96.8839L110.191 92.2742L108.633 93.833L111.689 96.8848L108.633 99.9418L110.191 101.5Z" fill="#1A7BFF"/>
<path d="M102.06 87.3641L109.6 105.567L107.564 106.41L100.023 88.2077L102.06 87.3641Z" fill="#1A7BFF"/>
<path d="M81 100.453H93.7625V102.657H81V100.453Z" fill="#1A7BFF"/>
<path d="M81 94.3093H93.7625V96.513H81V94.3093Z" fill="#1A7BFF"/>
<path d="M81 82.0194H87.3287V84.2231H81V82.0194Z" fill="#1A7BFF"/>
<path d="M90.2827 82.0194H93.763V84.2231H90.2827V82.0194Z" fill="#1A7BFF"/>
<path d="M87.4351 88.1644H93.7638V90.3681H87.4351V88.1644Z" fill="#1A7BFF"/>
<path d="M81 88.1644H84.4813V90.3681H81V88.1644Z" fill="#1A7BFF"/>
<path d="M81 112.743H87.3287V114.946H81V112.743Z" fill="#1A7BFF"/>
<path d="M81 106.598H84.4813V108.802H81V106.598Z" fill="#1A7BFF"/>
<path d="M87.4351 106.598H93.7638V108.802H87.4351V106.598Z" fill="#1A7BFF"/>
<path d="M90.2827 112.743H93.763V114.946H90.2827V112.743Z" fill="#1A7BFF"/>
<path d="M115.86 100.453H128.624V102.657H115.86V100.453Z" fill="#1A7BFF"/>
<path d="M115.86 94.3093H128.624V96.513H115.86V94.3093Z" fill="#1A7BFF"/>
<path d="M115.86 82.0194H122.19V84.2231H115.86V82.0194Z" fill="#1A7BFF"/>
<path d="M125.143 82.0194H128.624V84.2231H125.143V82.0194Z" fill="#1A7BFF"/>
<path d="M122.295 88.1644H128.624V90.3681H122.295V88.1644Z" fill="#1A7BFF"/>
<path d="M115.86 88.1644H119.342V90.3681H115.86V88.1644Z" fill="#1A7BFF"/>
<path d="M115.86 112.743H122.19V114.946H115.86V112.743Z" fill="#1A7BFF"/>
<path d="M115.86 106.598H119.342V108.802H115.86V106.598Z" fill="#1A7BFF"/>
<path d="M122.295 106.598H128.624V108.802H122.295V106.598Z" fill="#1A7BFF"/>
<path d="M125.143 112.743H128.624V114.946H125.143V112.743Z" fill="#1A7BFF"/>
<path d="M73.2163 125.966H99.1197L91.503 132.728C89.5012 134.735 90.9227 138.153 93.7521 138.153L115.87 138.153C118.667 138.153 120.167 134.774 118.071 132.683L110.503 125.966H137.174C139.076 125.966 140.624 124.432 140.624 122.547L140.624 74.4185C140.624 72.5337 139.077 71 137.174 71H73.2162C70.8915 71 69 72.8916 69 75.2162V121.748C69 124.073 70.8916 125.965 73.2162 125.965L73.2163 125.966ZM116.562 134.286C117.175 134.9 116.741 135.949 115.872 135.949H93.7525C92.8662 135.949 92.4795 134.871 93.0156 134.331L94.1254 133.345H115.501L116.562 134.286ZM113.018 131.142H96.6083L102.44 125.965H107.185L113.018 131.142ZM71.2046 75.2163C71.2046 74.107 72.1074 73.2036 73.2172 73.2036H137.175C137.863 73.2042 138.422 73.7485 138.422 74.4185V122.547C138.422 123.217 137.863 123.762 137.175 123.762H73.2172C72.1074 123.762 71.2046 122.859 71.2046 121.749V75.2163Z" fill="#1A7BFF"/>
<path d="M136.217 75.4078H73.4087V121.557H136.219L136.217 75.4078ZM134.014 119.354H75.6124V77.6122H134.014V119.354Z" fill="#1A7BFF"/>
<defs>
<filter id="filter0_d_67_12" x="0" y="0" width="209.631" height="209.631" filterUnits="userSpaceOnUse" color-interpolation-filters="sRGB">
<feFlood flood-opacity="0" result="BackgroundImageFix"/>
<feColorMatrix in="SourceAlpha" type="matrix" values="0 0 0 0 0 0 0 0 0 0 0 0 0 0 0 0 0 0 127 0" result="hardAlpha"/>
<feOffset/>
<feGaussianBlur stdDeviation="20"/>
<feComposite in2="hardAlpha" operator="out"/>
<feColorMatrix type="matrix" values="0 0 0 0 0 0 0 0 0 0 0 0 0 0 0 0 0 0 0.05 0"/>
<feBlend mode="normal" in2="BackgroundImageFix" result="effect1_dropShadow_67_12"/>
<feBlend mode="normal" in="SourceGraphic" in2="effect1_dropShadow_67_12" result="shape"/>
</filter>
</defs>
</svg>
