<svg width="447" height="409" viewBox="0 0 447 409" fill="none" xmlns="http://www.w3.org/2000/svg">
<g filter="url(#filter0_d_67_9)">
<path d="M361 368H46.2021C26.0333 368 10.038 350.998 11.2672 330.867L26.4145 82.7769C27.4649 65.5728 40.8843 51.6944 58.0434 50.0663L357.694 21.6346C378.238 19.6853 396 35.8421 396 56.4781V333C396 352.33 380.33 368 361 368Z" fill="white"/>
<path d="M361 368H46.2021C26.0333 368 10.038 350.998 11.2672 330.867L26.4145 82.7769C27.4649 65.5728 40.8843 51.6944 58.0434 50.0663L357.694 21.6346C378.238 19.6853 396 35.8421 396 56.4781V333C396 352.33 380.33 368 361 368Z" stroke="#1A7BFF"/>
</g>
<defs>
<filter id="filter0_d_67_9" x="0.700684" y="0.974976" width="445.799" height="407.525" filterUnits="userSpaceOnUse" color-interpolation-filters="sRGB">
<feFlood flood-opacity="0" result="BackgroundImageFix"/>
<feColorMatrix in="SourceAlpha" type="matrix" values="0 0 0 0 0 0 0 0 0 0 0 0 0 0 0 0 0 0 127 0" result="hardAlpha"/>
<feOffset dx="20" dy="10"/>
<feGaussianBlur stdDeviation="15"/>
<feComposite in2="hardAlpha" operator="out"/>
<feColorMatrix type="matrix" values="0 0 0 0 0.325 0 0 0 0 0.0748774 0 0 0 0 0.0541667 0 0 0 0.08 0"/>
<feBlend mode="normal" in2="BackgroundImageFix" result="effect1_dropShadow_67_9"/>
<feBlend mode="normal" in="SourceGraphic" in2="effect1_dropShadow_67_9" result="shape"/>
</filter>
</defs>
</svg>
