<?xml version="1.0" encoding="UTF-8"?>
<!DOCTYPE svg PUBLIC "-//W3C//DTD SVG 1.1//EN" "http://www.w3.org/Graphics/SVG/1.1/DTD/svg11.dtd">
<!-- Creator: CorelDRAW -->
<svg xmlns="http://www.w3.org/2000/svg" xml:space="preserve" width="6.1402in" height="1.92575in" version="1.1" style="shape-rendering:geometricPrecision; text-rendering:geometricPrecision; image-rendering:optimizeQuality; fill-rule:evenodd; clip-rule:evenodd"
viewBox="0 0 6583.97 2064.93"
 xmlns:xlink="http://www.w3.org/1999/xlink"
 xmlns:xodm="http://www.corel.com/coreldraw/odm/2003">
 <defs>
  <style type="text/css">
   <![CDATA[
    .fil11 {fill:#5E5D5D;fill-rule:nonzero}
    .fil7 {fill:url(#id0)}
    .fil5 {fill:url(#id1)}
    .fil6 {fill:url(#id2)}
    .fil9 {fill:url(#id3)}
    .fil8 {fill:url(#id4)}
    .fil10 {fill:url(#id5)}
    .fil4 {fill:url(#id6);fill-rule:nonzero}
    .fil3 {fill:url(#id7);fill-rule:nonzero}
    .fil2 {fill:url(#id8);fill-rule:nonzero}
    .fil0 {fill:url(#id9);fill-rule:nonzero}
    .fil1 {fill:url(#id10);fill-rule:nonzero}
   ]]>
  </style>
  <linearGradient id="id0" gradientUnits="userSpaceOnUse" x1="2806.9" y1="392.87" x2="3666.26" y2="185.65">
   <stop offset="0" style="stop-opacity:1; stop-color:#2B569C"/>
   <stop offset="1" style="stop-opacity:1; stop-color:#5FCBEF"/>
  </linearGradient>
  <linearGradient id="id1" gradientUnits="userSpaceOnUse" xlink:href="#id0" x1="4165.38" y1="195.14" x2="3921.06" y2="1056.37">
  </linearGradient>
  <linearGradient id="id2" gradientUnits="userSpaceOnUse" xlink:href="#id0" x1="3424.99" y1="-95.03" x2="4035.34" y2="551.6">
  </linearGradient>
  <linearGradient id="id3" gradientUnits="userSpaceOnUse" xlink:href="#id0" x1="3653.63" y1="1478.09" x2="3043.28" y2="844.1">
  </linearGradient>
  <linearGradient id="id4" gradientUnits="userSpaceOnUse" xlink:href="#id0" x1="4277.19" y1="987.53" x2="3413.62" y2="1205.22">
  </linearGradient>
  <linearGradient id="id5" gradientUnits="userSpaceOnUse" xlink:href="#id0" x1="2914.28" y1="1178.6" x2="3152.29" y2="340.36">
  </linearGradient>
  <linearGradient id="id6" gradientUnits="userSpaceOnUse" xlink:href="#id0" x1="5919.94" y1="113.06" x2="6409.49" y2="1275.63">
  </linearGradient>
  <linearGradient id="id7" gradientUnits="userSpaceOnUse" x1="4645.5" y1="149.83" x2="5304.47" y2="1238.86">
   <stop offset="0" style="stop-opacity:1; stop-color:#5FCBEF"/>
   <stop offset="1" style="stop-opacity:1; stop-color:#2B569C"/>
  </linearGradient>
  <linearGradient id="id8" gradientUnits="userSpaceOnUse" xlink:href="#id0" x1="1764.96" y1="188.29" x2="2609.13" y2="1200.4">
  </linearGradient>
  <linearGradient id="id9" gradientUnits="userSpaceOnUse" xlink:href="#id0" x1="-130.08" y1="590.43" x2="379.42" y2="798.26">
  </linearGradient>
  <linearGradient id="id10" gradientUnits="userSpaceOnUse" xlink:href="#id7" x1="592.65" y1="167.52" x2="1244.41" y2="1221.17">
  </linearGradient>
 </defs>
 <g id="Layer_x0020_1">
  <metadata id="CorelCorpID_0Corel-Layer"/>
  <polygon class="fil0" points="-0,33.15 249.33,33.15 249.33,1355.54 -0,1355.54 "/>
  <polygon class="fil1" points="793.86,1355.54 793.86,269.55 424.48,269.55 424.48,33.15 1412.58,33.15 1412.58,269.55 1043.19,269.55 1043.19,1355.54 "/>
  <path class="fil2" d="M2797.45 1143.14c-65.26,78.8 -142.21,138.83 -230.86,180.07 -88.65,41.25 -187.77,61.87 -297.35,61.87 -98.5,0 -189.93,-17.85 -274.27,-53.56 -84.34,-35.71 -157.29,-84.34 -218.86,-145.91 -61.56,-61.56 -110.2,-134.52 -145.91,-218.86 -35.71,-84.34 -53.56,-175.15 -53.56,-272.42 0,-97.27 17.86,-188.08 53.56,-272.42 35.71,-84.34 84.34,-157.29 145.91,-218.86 61.56,-61.56 134.52,-110.2 218.86,-145.91 84.34,-35.71 175.77,-53.56 274.27,-53.56 105.89,0 199.16,18.47 279.81,55.41 80.65,36.94 152.37,90.5 215.16,160.68l-175.46 169.92c-39.4,-45.56 -84.65,-81.88 -135.75,-108.97 -51.1,-27.09 -111.74,-40.63 -181.92,-40.63 -61.56,0 -119.43,10.77 -173.61,32.32 -54.18,21.55 -101.27,52.02 -141.29,91.42 -40.02,39.4 -71.72,87.11 -95.12,143.14 -23.4,56.02 -35.09,118.51 -35.09,187.46 0,68.95 11.7,131.44 35.09,187.46 23.4,56.02 55.1,103.74 95.12,143.14 40.02,39.4 87.11,69.88 141.29,91.42 54.18,21.55 112.04,32.32 173.61,32.32 73.88,0 139.44,-15.08 196.7,-45.25 57.25,-30.17 108.04,-72.95 152.37,-128.36l177.3 168.07z"/>
  <path class="fil3" d="M4411.68 33.15l446.95 0c104.66,0 198.85,16.01 282.58,48.02 83.73,32.01 155.14,77.26 214.24,135.75 59.1,58.49 104.35,128.36 135.75,209.63 31.4,81.26 47.1,170.53 47.1,267.8 0,98.5 -15.7,188.39 -47.1,269.65 -31.4,81.26 -76.65,150.83 -135.75,208.7 -59.1,57.87 -130.52,102.81 -214.24,134.82 -83.73,32.01 -177.92,48.02 -282.58,48.02l-446.95 0 0 -1322.39zm435.87 1085.98c72.64,0 136.67,-10.16 192.08,-30.47 55.41,-20.32 101.58,-48.94 138.52,-85.88 36.94,-36.94 64.64,-81.57 83.11,-133.9 18.47,-52.33 27.71,-110.51 27.71,-174.54 0,-64.02 -9.24,-122.21 -27.71,-174.53 -18.47,-52.33 -46.17,-96.96 -83.11,-133.9 -36.94,-36.94 -83.11,-65.56 -138.52,-85.88 -55.41,-20.31 -119.44,-30.47 -192.08,-30.47l-186.54 0 0 849.58 186.54 0z"/>
  <polygon class="fil4" points="5994.8,269.55 5994.8,576.14 6524.87,576.14 6524.87,812.55 5994.8,812.55 5994.8,1119.13 6583.97,1119.13 6583.97,1355.54 5745.47,1355.54 5745.47,33.15 6583.97,33.15 6583.97,269.55 "/>
  <path class="fil5" d="M4026.91 534.17c-26.12,278.7 -170.28,411.31 -311.16,466.85 111.67,42.81 204,35.52 204,35.52 44.41,-18.08 222.65,-107.58 305.48,-257.35 3.54,-28.4 5.57,-57.28 5.57,-86.64 0,-225.24 -107.59,-425.3 -274.12,-551.78 88.41,146.63 76.79,345.87 70.23,393.4z"/>
  <path class="fil6" d="M3894.15 693.08c92.91,-75.31 132.76,-158.91 132.76,-158.91 6.56,-47.53 18.17,-246.77 -70.23,-393.4 -116.25,-88.29 -261.18,-140.77 -418.43,-140.77 -95.49,0 -186.47,19.33 -269.25,54.3 171.4,-3.52 338.49,106.4 376.42,135.86 228.31,161.99 271.06,353.15 248.73,502.92z"/>
  <path class="fil7" d="M3156.77 348.55c254.41,-116.73 441.35,-58.17 559.89,36.05 -18.78,-118.14 -71.24,-194.44 -71.24,-194.44 -37.93,-29.46 -205.02,-139.39 -376.42,-135.86 -223.28,94.31 -386.58,302.42 -417.7,551.6 82.81,-149.78 261.06,-239.27 305.48,-257.35z"/>
  <path class="fil8" d="M4225.23 779.19c-82.83,149.77 -261.07,239.27 -305.48,257.35 -254.43,116.72 -441.36,58.17 -559.9,-36.06 18.78,118.14 71.24,194.44 71.24,194.44 37.93,29.48 205.02,139.39 376.42,135.87 223.28,-94.31 386.58,-302.43 417.71,-551.6z"/>
  <path class="fil9" d="M3182.37 692.02c-92.93,75.33 -132.78,158.92 -132.78,158.92 -6.54,47.53 -18.16,246.76 70.25,393.4 116.25,88.28 261.18,140.76 418.41,140.76 95.5,0 186.48,-19.34 269.27,-54.3 -171.4,3.52 -338.49,-106.39 -376.42,-135.87 -228.29,-161.97 -271.06,-353.15 -248.72,-502.91z"/>
  <path class="fil10" d="M3049.59 850.94c26.14,-278.7 170.29,-411.32 311.18,-466.86 -111.7,-42.81 -204,-35.52 -204,-35.52 -44.42,18.08 -222.67,107.57 -305.48,257.35 -3.54,28.42 -5.59,57.28 -5.59,86.65 0,225.25 107.62,425.31 274.14,551.79 -88.41,-146.64 -76.79,-345.87 -70.25,-393.4z"/>
  <path class="fil11" d="M1484.27 2056.93l-48.05 0 0 -357.9 48.05 0 0 357.9zm313.53 0l-48.04 0 0 -357.9 58.48 0 181.72 278.42 2.09 0 -2.09 -68.98 0 -209.44 48.04 0 0 357.9 -50.13 0 -190.07 -291.92 -2.09 0 2.09 68.98 0 222.94zm553.72 -153.46l0 153.46 -48.04 0 0 -357.9 218.27 0 0 43.98 -170.23 0 0 117.47 153.52 0 0 42.99 -153.52 0zm775.65 -25.49c0,52.98 -18.45,97.31 -55.35,132.97 -37.25,35.99 -82.85,53.99 -136.81,53.99 -54.3,0 -99.91,-18 -136.81,-53.99 -36.9,-35.66 -55.35,-79.98 -55.35,-132.97 0,-52.98 18.45,-97.31 55.35,-132.96 36.9,-35.99 82.51,-53.99 136.81,-53.99 54.31,0 99.91,18.16 136.81,54.48 36.9,35.66 55.35,79.81 55.35,132.46zm-335.24 0c0,41.32 13.58,75.48 40.73,102.47 27.5,26.99 61.61,40.49 102.34,40.49 40.73,0 74.67,-13.5 101.82,-40.49 27.5,-26.66 41.25,-60.82 41.25,-102.47 0,-41.65 -13.75,-75.81 -41.25,-102.47 -27.15,-26.99 -61.09,-40.49 -101.82,-40.49 -40.73,0 -74.84,13.5 -102.34,40.49 -27.15,26.99 -40.73,61.15 -40.73,102.47zm694.19 -134.96l0 313.91 -48.04 0 0 -313.91 -104.43 0 0 -43.98 256.91 0 0 43.98 -104.43 0zm563.12 -43.98l0 43.98 -170.23 0 0 113.47 153.51 0 0 42.99 -153.51 0 0 113.47 170.23 0 0 43.99 -218.27 0 0 -357.9 218.27 0zm420.57 365.9c-55.35,0 -101.65,-17.83 -138.9,-53.49 -36.9,-35.66 -55.35,-80.15 -55.35,-133.46 0,-53.32 18.45,-97.64 55.35,-132.96 36.9,-35.99 83.2,-53.99 138.9,-53.99 56.4,0 102.17,19.5 137.34,58.49l-34.46 31.99c-26.81,-30.99 -61.09,-46.49 -102.87,-46.49 -41.42,0 -76.06,13.33 -103.91,39.99 -27.5,26.33 -41.25,60.65 -41.25,102.97 0,42.32 13.75,76.65 41.25,102.97 27.85,26.66 62.49,39.99 103.91,39.99 43.52,0 81.29,-17.5 113.31,-52.49l34.98 32.49c-17.76,20.33 -39.51,36.07 -65.27,47.24 -25.76,11.16 -53.43,16.75 -83.03,16.75zm443.03 -8l-48.04 0 0 -357.9 48.04 0 0 153.46 186.93 0 0 -153.46 48.04 0 0 357.9 -48.04 0 0 -161.45 -186.93 0 0 161.45z"/>
 </g>
</svg>
